OstrichSans-Heavy.ufo
<glyph name="exclam" format="1">
  <advance width="143"/>
  <unicode hex="0021"/>
  <outline>
    <contour>
      <point x="93" y="639" type="line" smooth="yes"/>
      <point x="93" y="659"/>
      <point x="77" y="675"/>
      <point x="57" y="675" type="curve" smooth="yes"/>
      <point x="29" y="675" type="line" smooth="yes"/>
      <point x="10" y="675"/>
      <point x="-6" y="659"/>
      <point x="-6" y="639" type="curve" smooth="yes"/>
      <point x="-6" y="174" type="line" smooth="yes"/>
      <point x="-6" y="155"/>
      <point x="10" y="138"/>
      <point x="29" y="138" type="curve" smooth="yes"/>
      <point x="57" y="138" type="line" smooth="yes"/>
      <point x="77" y="138"/>
      <point x="93" y="155"/>
      <point x="93" y="174" type="curve" smooth="yes"/>
    </contour>
    <contour>
      <point x="29" y="111" type="line" smooth="yes"/>
      <point x="10" y="111"/>
      <point x="-6" y="95"/>
      <point x="-6" y="75" type="curve" smooth="yes"/>
      <point x="-6" y="37" type="line" smooth="yes"/>
      <point x="-6" y="17"/>
      <point x="10" y="1"/>
      <point x="29" y="1" type="curve" smooth="yes"/>
      <point x="57" y="1" type="line" smooth="yes"/>
      <point x="77" y="1"/>
      <point x="93" y="17"/>
      <point x="93" y="37" type="curve" smooth="yes"/>
      <point x="93" y="75" type="line" smooth="yes"/>
      <point x="93" y="95"/>
      <point x="77" y="111"/>
      <point x="57" y="111" type="curve" smooth="yes"/>
    </contour>
  </outline>
</glyph>
<glyph name="quotedbl" format="1">
  <advance width="212"/>
  <unicode hex="0022"/>
  <outline>
    <contour>
      <point x="32" y="674" type="line" smooth="yes"/>
      <point x="12" y="674"/>
      <point x="-4" y="658"/>
      <point x="-4" y="638" type="curve" smooth="yes"/>
      <point x="-4" y="560" type="line" smooth="yes"/>
      <point x="-4" y="540"/>
      <point x="12" y="524"/>
      <point x="32" y="524" type="curve" smooth="yes"/>
      <point x="60" y="524" type="line" smooth="yes"/>
      <point x="79" y="524"/>
      <point x="95" y="540"/>
      <point x="95" y="560" type="curve" smooth="yes"/>
      <point x="95" y="638" type="line" smooth="yes"/>
      <point x="95" y="658"/>
      <point x="79" y="674"/>
      <point x="60" y="674" type="curve" smooth="yes"/>
    </contour>
    <contour>
      <point x="149" y="638" type="line" smooth="yes"/>
      <point x="149" y="658"/>
      <point x="133" y="674"/>
      <point x="113" y="674" type="curve" smooth="yes"/>
      <point x="85" y="674" type="line" smooth="yes"/>
      <point x="65" y="674"/>
      <point x="49" y="658"/>
      <point x="49" y="638" type="curve" smooth="yes"/>
      <point x="49" y="560" type="line" smooth="yes"/>
      <point x="49" y="540"/>
      <point x="65" y="524"/>
      <point x="85" y="524" type="curve" smooth="yes"/>
      <point x="113" y="524" type="line" smooth="yes"/>
      <point x="133" y="524"/>
      <point x="149" y="540"/>
      <point x="149" y="560" type="curve" smooth="yes"/>
    </contour>
  </outline>
</glyph>
<glyph name="numbersign" format="1">
  <advance width="592"/>
  <unicode hex="0023"/>
  <outline>
    <contour>
      <point x="251" y="202" type="line"/>
      <point x="221" y="42" type="line" smooth="yes"/>
      <point x="217" y="19"/>
      <point x="233" y="0"/>
      <point x="256" y="0" type="curve" smooth="yes"/>
      <point x="284" y="0" type="line" smooth="yes"/>
      <point x="301" y="0"/>
      <point x="317" y="13"/>
      <point x="319" y="29" type="curve"/>
      <point x="330" y="88"/>
      <point x="342" y="143"/>
      <point x="352" y="202" type="curve"/>
      <point x="442" y="202" type="line" smooth="yes"/>
      <point x="461" y="202"/>
      <point x="478" y="218"/>
      <point x="478" y="238" type="curve" smooth="yes"/>
      <point x="478" y="266" type="line" smooth="yes"/>
      <point x="478" y="286"/>
      <point x="461" y="302"/>
      <point x="442" y="302" type="curve" smooth="yes"/>
      <point x="373" y="302" type="line"/>
      <point x="386" y="371" type="line"/>
      <point x="470" y="371" type="line" smooth="yes"/>
      <point x="489" y="371"/>
      <point x="505" y="387"/>
      <point x="505" y="407" type="curve" smooth="yes"/>
      <point x="505" y="435" type="line" smooth="yes"/>
      <point x="505" y="455"/>
      <point x="489" y="471"/>
      <point x="470" y="471" type="curve" smooth="yes"/>
      <point x="404" y="471" type="line"/>
      <point x="436" y="632" type="line" smooth="yes"/>
      <point x="440" y="655"/>
      <point x="424" y="674"/>
      <point x="401" y="674" type="curve" smooth="yes"/>
      <point x="372" y="674" type="line" smooth="yes"/>
      <point x="356" y="674"/>
      <point x="340" y="661"/>
      <point x="337" y="645" type="curve" smooth="yes"/>
      <point x="304" y="471" type="line"/>
      <point x="251" y="471" type="line"/>
      <point x="282" y="631" type="line" smooth="yes"/>
      <point x="286" y="654"/>
      <point x="270" y="674"/>
      <point x="247" y="674" type="curve" smooth="yes"/>
      <point x="217" y="674" type="line" smooth="yes"/>
      <point x="201" y="674"/>
      <point x="185" y="661"/>
      <point x="183" y="645" type="curve"/>
      <point x="172" y="586"/>
      <point x="160" y="530"/>
      <point x="149" y="471" type="curve"/>
      <point x="42" y="471" type="line" smooth="yes"/>
      <point x="23" y="471"/>
      <point x="6" y="455"/>
      <point x="6" y="435" type="curve" smooth="yes"/>
      <point x="6" y="407" type="line" smooth="yes"/>
      <point x="6" y="387"/>
      <point x="23" y="371"/>
      <point x="42" y="371" type="curve" smooth="yes"/>
      <point x="130" y="371" type="line"/>
      <point x="124" y="337"/>
      <point x="120" y="324"/>
      <point x="116" y="302" type="curve"/>
      <point x="15" y="302" type="line" smooth="yes"/>
      <point x="-5" y="302"/>
      <point x="-21" y="286"/>
      <point x="-21" y="266" type="curve" smooth="yes"/>
      <point x="-21" y="238" type="line" smooth="yes"/>
      <point x="-21" y="218"/>
      <point x="-5" y="202"/>
      <point x="15" y="202" type="curve" smooth="yes"/>
      <point x="97" y="202" type="line"/>
      <point x="65" y="42" type="line" smooth="yes"/>
      <point x="61" y="19"/>
      <point x="77" y="0"/>
      <point x="100" y="0" type="curve" smooth="yes"/>
      <point x="129" y="0" type="line" smooth="yes"/>
      <point x="145" y="0"/>
      <point x="161" y="13"/>
      <point x="164" y="29" type="curve" smooth="yes"/>
      <point x="175" y="88"/>
      <point x="186" y="143"/>
      <point x="198" y="202" type="curve"/>
    </contour>
    <contour>
      <point x="217" y="302" type="line"/>
      <point x="223" y="336"/>
      <point x="226" y="350"/>
      <point x="231" y="371" type="curve"/>
      <point x="284" y="371" type="line"/>
      <point x="278" y="337"/>
      <point x="275" y="324"/>
      <point x="270" y="302" type="curve"/>
    </contour>
  </outline>
</glyph>
<glyph name="percent" format="1">
  <advance width="554"/>
  <unicode hex="0025"/>
  <outline>
    <contour>
      <point x="159" y="0" type="line" smooth="yes"/>
      <point x="171" y="0"/>
      <point x="187" y="11"/>
      <point x="192" y="22" type="curve"/>
      <point x="433" y="625" type="line" smooth="yes"/>
      <point x="443" y="650"/>
      <point x="427" y="674"/>
      <point x="400" y="674" type="curve" smooth="yes"/>
      <point x="370" y="674" type="line" smooth="yes"/>
      <point x="357" y="674"/>
      <point x="341" y="663"/>
      <point x="336" y="652" type="curve"/>
      <point x="95" y="49" type="line" smooth="yes"/>
      <point x="85" y="24"/>
      <point x="101" y="0"/>
      <point x="128" y="0" type="curve" smooth="yes"/>
    </contour>
    <contour>
      <point x="223" y="555" type="line" smooth="yes"/>
      <point x="223" y="626"/>
      <point x="178" y="673"/>
      <point x="114" y="673" type="curve" smooth="yes"/>
      <point x="51" y="673"/>
      <point x="5" y="626"/>
      <point x="5" y="555" type="curve" smooth="yes"/>
      <point x="5" y="478" type="line" smooth="yes"/>
      <point x="5" y="407"/>
      <point x="51" y="360"/>
      <point x="114" y="360" type="curve" smooth="yes"/>
      <point x="178" y="360"/>
      <point x="223" y="407"/>
      <point x="223" y="478" type="curve" smooth="yes"/>
    </contour>
    <contour>
      <point x="101" y="555" type="line" smooth="yes"/>
      <point x="101" y="563"/>
      <point x="107" y="570"/>
      <point x="114" y="570" type="curve" smooth="yes"/>
      <point x="120" y="570"/>
      <point x="126" y="563"/>
      <point x="126" y="555" type="curve" smooth="yes"/>
      <point x="126" y="478" type="line" smooth="yes"/>
      <point x="126" y="470"/>
      <point x="120" y="463"/>
      <point x="114" y="463" type="curve" smooth="yes"/>
      <point x="107" y="463"/>
      <point x="101" y="470"/>
      <point x="101" y="478" type="curve" smooth="yes"/>
    </contour>
    <contour>
      <point x="531" y="195" type="line" smooth="yes"/>
      <point x="531" y="266"/>
      <point x="487" y="312"/>
      <point x="423" y="312" type="curve" smooth="yes"/>
      <point x="358" y="312"/>
      <point x="314" y="266"/>
      <point x="314" y="195" type="curve" smooth="yes"/>
      <point x="314" y="118" type="line" smooth="yes"/>
      <point x="314" y="48"/>
      <point x="358" y="0"/>
      <point x="423" y="0" type="curve" smooth="yes"/>
      <point x="487" y="0"/>
      <point x="531" y="48"/>
      <point x="531" y="118" type="curve" smooth="yes"/>
    </contour>
    <contour>
      <point x="435" y="118" type="line" smooth="yes"/>
      <point x="435" y="109"/>
      <point x="429" y="102"/>
      <point x="423" y="102" type="curve" smooth="yes"/>
      <point x="416" y="102"/>
      <point x="410" y="109"/>
      <point x="410" y="118" type="curve" smooth="yes"/>
      <point x="410" y="195" type="line" smooth="yes"/>
      <point x="410" y="201"/>
      <point x="414" y="211"/>
      <point x="423" y="211" type="curve" smooth="yes"/>
      <point x="431" y="211"/>
      <point x="434" y="202"/>
      <point x="435" y="195" type="curve"/>
    </contour>
  </outline>
</glyph>
<glyph name="comma" format="1">
  <advance width="135"/>
  <unicode hex="002C"/>
  <outline>
    <contour>
      <point x="97" y="74" type="line" smooth="yes"/>
      <point x="97" y="94"/>
      <point x="80" y="110"/>
      <point x="61" y="110" type="curve" smooth="yes"/>
      <point x="33" y="110" type="line" smooth="yes"/>
      <point x="13" y="110"/>
      <point x="-3" y="94"/>
      <point x="-3" y="74" type="curve" smooth="yes"/>
      <point x="-3" y="0" type="line" smooth="yes"/>
      <point x="-3" y="-20"/>
      <point x="13" y="-36"/>
      <point x="33" y="-36" type="curve" smooth="yes"/>
      <point x="61" y="-36" type="line" smooth="yes"/>
      <point x="80" y="-36"/>
      <point x="97" y="-20"/>
      <point x="97" y="0" type="curve" smooth="yes"/>
    </contour>
  </outline>
</glyph>
<glyph name="period" format="1">
  <advance width="131"/>
  <unicode hex="002E"/>
  <outline>
    <contour>
      <point x="97" y="74" type="line" smooth="yes"/>
      <point x="97" y="94"/>
      <point x="80" y="110"/>
      <point x="61" y="110" type="curve" smooth="yes"/>
      <point x="32" y="110" type="line" smooth="yes"/>
      <point x="13" y="110"/>
      <point x="-4" y="94"/>
      <point x="-4" y="74" type="curve" smooth="yes"/>
      <point x="-4" y="36" type="line" smooth="yes"/>
      <point x="-4" y="16"/>
      <point x="13" y="0"/>
      <point x="32" y="0" type="curve" smooth="yes"/>
      <point x="61" y="0" type="line" smooth="yes"/>
      <point x="80" y="0"/>
      <point x="97" y="16"/>
      <point x="97" y="36" type="curve" smooth="yes"/>
    </contour>
  </outline>
</glyph>
<glyph name="zero" format="1">
  <advance width="370"/>
  <unicode hex="0030"/>
  <outline>
    <contour>
      <point x="-1" y="198" type="line" smooth="yes"/>
      <point x="-1" y="72"/>
      <point x="48" y="0"/>
      <point x="147" y="0" type="curve" smooth="yes"/>
      <point x="245" y="0"/>
      <point x="294" y="75"/>
      <point x="294" y="198" type="curve" smooth="yes"/>
      <point x="294" y="477" type="line" smooth="yes"/>
      <point x="294" y="600"/>
      <point x="246" y="674"/>
      <point x="147" y="674" type="curve" smooth="yes"/>
      <point x="47" y="674"/>
      <point x="-1" y="603"/>
      <point x="-1" y="477" type="curve" smooth="yes"/>
    </contour>
    <contour>
      <point x="99" y="487" type="line" smooth="yes"/>
      <point x="99" y="552"/>
      <point x="115" y="573"/>
      <point x="147" y="573" type="curve" smooth="yes"/>
      <point x="178" y="573"/>
      <point x="194" y="552"/>
      <point x="194" y="487" type="curve" smooth="yes"/>
      <point x="194" y="188" type="line" smooth="yes"/>
      <point x="194" y="122"/>
      <point x="178" y="101"/>
      <point x="147" y="101" type="curve" smooth="yes"/>
      <point x="115" y="101"/>
      <point x="99" y="122"/>
      <point x="99" y="188" type="curve" smooth="yes"/>
    </contour>
  </outline>
</glyph>
<glyph name="two" format="1">
  <advance width="370"/>
  <unicode hex="0032"/>
  <outline>
    <contour>
      <point x="105" y="99" type="line"/>
      <point x="112" y="167"/>
      <point x="136" y="213"/>
      <point x="184" y="255" type="curve" smooth="yes"/>
      <point x="260" y="323"/>
      <point x="297" y="402"/>
      <point x="297" y="494" type="curve" smooth="yes"/>
      <point x="297" y="597"/>
      <point x="244" y="674"/>
      <point x="150" y="674" type="curve" smooth="yes"/>
      <point x="51" y="674"/>
      <point x="2" y="607"/>
      <point x="2" y="491" type="curve" smooth="yes"/>
      <point x="2" y="485" type="line" smooth="yes"/>
      <point x="2" y="466"/>
      <point x="18" y="450"/>
      <point x="38" y="450" type="curve" smooth="yes"/>
      <point x="67" y="450" type="line" smooth="yes"/>
      <point x="86" y="450"/>
      <point x="102" y="466"/>
      <point x="102" y="485" type="curve" smooth="yes"/>
      <point x="102" y="491" type="line" smooth="yes"/>
      <point x="102" y="549"/>
      <point x="118" y="575"/>
      <point x="150" y="575" type="curve" smooth="yes"/>
      <point x="180" y="575"/>
      <point x="197" y="543"/>
      <point x="197" y="494" type="curve" smooth="yes"/>
      <point x="197" y="435"/>
      <point x="168" y="378"/>
      <point x="117" y="330" type="curve" smooth="yes"/>
      <point x="75" y="291"/>
      <point x="43" y="246"/>
      <point x="25" y="197" type="curve"/>
      <point x="26" y="198" type="line"/>
      <point x="10" y="155"/>
      <point x="2" y="107"/>
      <point x="2" y="50" type="curve" smooth="yes"/>
      <point x="2" y="36" type="line" smooth="yes"/>
      <point x="2" y="16"/>
      <point x="18" y="0"/>
      <point x="38" y="0" type="curve" smooth="yes"/>
      <point x="261" y="0" type="line" smooth="yes"/>
      <point x="281" y="0"/>
      <point x="297" y="16"/>
      <point x="297" y="36" type="curve" smooth="yes"/>
      <point x="297" y="63" type="line" smooth="yes"/>
      <point x="297" y="83"/>
      <point x="281" y="99"/>
      <point x="261" y="99" type="curve" smooth="yes"/>
    </contour>
  </outline>
</glyph>
<glyph name="three" format="1">
  <advance width="353"/>
  <unicode hex="0033"/>
  <outline>
    <contour>
      <point x="0" y="195" type="line" smooth="yes"/>
      <point x="0" y="72"/>
      <point x="50" y="0"/>
      <point x="148" y="0" type="curve" smooth="yes"/>
      <point x="237" y="0"/>
      <point x="295" y="73"/>
      <point x="295" y="191" type="curve" smooth="yes"/>
      <point x="295" y="266"/>
      <point x="264" y="311"/>
      <point x="238" y="336" type="curve"/>
      <point x="264" y="362"/>
      <point x="295" y="408"/>
      <point x="295" y="482" type="curve" smooth="yes"/>
      <point x="295" y="535"/>
      <point x="285" y="577"/>
      <point x="262" y="610" type="curve"/>
      <point x="263" y="609" type="line"/>
      <point x="236" y="653"/>
      <point x="198" y="674"/>
      <point x="148" y="674" type="curve" smooth="yes"/>
      <point x="50" y="674"/>
      <point x="0" y="602"/>
      <point x="0" y="478" type="curve" smooth="yes"/>
      <point x="0" y="473" type="line" smooth="yes"/>
      <point x="0" y="453"/>
      <point x="16" y="437"/>
      <point x="36" y="437" type="curve" smooth="yes"/>
      <point x="65" y="437" type="line" smooth="yes"/>
      <point x="84" y="437"/>
      <point x="100" y="453"/>
      <point x="100" y="473" type="curve" smooth="yes"/>
      <point x="100" y="478" type="line" smooth="yes"/>
      <point x="100" y="543"/>
      <point x="117" y="575"/>
      <point x="148" y="575" type="curve" smooth="yes"/>
      <point x="160" y="575"/>
      <point x="171" y="569"/>
      <point x="178" y="557" type="curve"/>
      <point x="190" y="539"/>
      <point x="195" y="514"/>
      <point x="195" y="482" type="curve" smooth="yes"/>
      <point x="195" y="447"/>
      <point x="184" y="423"/>
      <point x="168" y="408" type="curve"/>
      <point x="169" y="408" type="line"/>
      <point x="155" y="393"/>
      <point x="138" y="386"/>
      <point x="125" y="386" type="curve" smooth="yes"/>
      <point x="112" y="386" type="line" smooth="yes"/>
      <point x="92" y="386"/>
      <point x="76" y="370"/>
      <point x="76" y="350" type="curve" smooth="yes"/>
      <point x="76" y="323" type="line" smooth="yes"/>
      <point x="76" y="303"/>
      <point x="92" y="287"/>
      <point x="112" y="287" type="curve" smooth="yes"/>
      <point x="125" y="287" type="line" smooth="yes"/>
      <point x="135" y="287"/>
      <point x="152" y="282"/>
      <point x="168" y="266" type="curve"/>
      <point x="180" y="255"/>
      <point x="195" y="232"/>
      <point x="195" y="191" type="curve" smooth="yes"/>
      <point x="195" y="175"/>
      <point x="193" y="160"/>
      <point x="191" y="147" type="curve"/>
      <point x="186" y="127"/>
      <point x="175" y="99"/>
      <point x="148" y="99" type="curve" smooth="yes"/>
      <point x="117" y="99"/>
      <point x="100" y="128"/>
      <point x="100" y="195" type="curve" smooth="yes"/>
      <point x="100" y="200" type="line" smooth="yes"/>
      <point x="100" y="220"/>
      <point x="84" y="236"/>
      <point x="65" y="236" type="curve" smooth="yes"/>
      <point x="36" y="236" type="line" smooth="yes"/>
      <point x="16" y="236"/>
      <point x="0" y="220"/>
      <point x="0" y="200" type="curve" smooth="yes"/>
    </contour>
  </outline>
</glyph>
<glyph name="four" format="1">
  <advance width="374"/>
  <unicode hex="0034"/>
  <outline>
    <contour>
      <point x="211" y="184" type="line"/>
      <point x="211" y="36" type="line" smooth="yes"/>
      <point x="211" y="16"/>
      <point x="227" y="0"/>
      <point x="247" y="0" type="curve" smooth="yes"/>
      <point x="275" y="0" type="line" smooth="yes"/>
      <point x="295" y="0"/>
      <point x="311" y="16"/>
      <point x="311" y="36" type="curve" smooth="yes"/>
      <point x="311" y="638" type="line" smooth="yes"/>
      <point x="311" y="658"/>
      <point x="295" y="674"/>
      <point x="275" y="674" type="curve" smooth="yes"/>
      <point x="248" y="674" type="line" smooth="yes"/>
      <point x="238" y="674"/>
      <point x="222" y="664"/>
      <point x="217" y="655" type="curve" smooth="yes"/>
      <point x="2" y="256" type="line"/>
      <point x="2" y="220" type="line" smooth="yes"/>
      <point x="2" y="200"/>
      <point x="18" y="184"/>
      <point x="38" y="184" type="curve" smooth="yes"/>
    </contour>
    <contour>
      <point x="211" y="283" type="line"/>
      <point x="119" y="283" type="line"/>
      <point x="212" y="445" type="line"/>
    </contour>
  </outline>
</glyph>
<glyph name="five" format="1">
  <advance width="360"/>
  <unicode hex="0035"/>
  <outline>
    <contour>
      <point x="-1" y="299" type="line" smooth="yes"/>
      <point x="-1" y="279"/>
      <point x="15" y="263"/>
      <point x="35" y="263" type="curve" smooth="yes"/>
      <point x="64" y="263" type="line" smooth="yes"/>
      <point x="83" y="263"/>
      <point x="100" y="279"/>
      <point x="100" y="299" type="curve" smooth="yes"/>
      <point x="100" y="332"/>
      <point x="119" y="347"/>
      <point x="147" y="347" type="curve" smooth="yes"/>
      <point x="179" y="347"/>
      <point x="194" y="320"/>
      <point x="194" y="257" type="curve" smooth="yes"/>
      <point x="194" y="193" type="line" smooth="yes"/>
      <point x="194" y="177"/>
      <point x="192" y="163"/>
      <point x="190" y="150" type="curve"/>
      <point x="185" y="130"/>
      <point x="177" y="99"/>
      <point x="147" y="99" type="curve" smooth="yes"/>
      <point x="120" y="99"/>
      <point x="100" y="108"/>
      <point x="100" y="173" type="curve" smooth="yes"/>
      <point x="100" y="177" type="line" smooth="yes"/>
      <point x="100" y="196"/>
      <point x="83" y="212"/>
      <point x="64" y="212" type="curve" smooth="yes"/>
      <point x="35" y="212" type="line" smooth="yes"/>
      <point x="15" y="212"/>
      <point x="-1" y="196"/>
      <point x="-1" y="177" type="curve" smooth="yes"/>
      <point x="-1" y="173" type="line" smooth="yes"/>
      <point x="-1" y="52"/>
      <point x="49" y="0"/>
      <point x="147" y="0" type="curve" smooth="yes"/>
      <point x="197" y="0"/>
      <point x="234" y="21"/>
      <point x="262" y="66" type="curve" smooth="yes"/>
      <point x="283" y="99"/>
      <point x="294" y="145"/>
      <point x="294" y="193" type="curve" smooth="yes"/>
      <point x="294" y="257" type="line" smooth="yes"/>
      <point x="294" y="313"/>
      <point x="289" y="358"/>
      <point x="266" y="391" type="curve" smooth="yes"/>
      <point x="238" y="429"/>
      <point x="212" y="447"/>
      <point x="150" y="447" type="curve" smooth="yes"/>
      <point x="131" y="447"/>
      <point x="103" y="432"/>
      <point x="100" y="423" type="curve"/>
      <point x="100" y="575" type="line"/>
      <point x="259" y="575" type="line" smooth="yes"/>
      <point x="278" y="575"/>
      <point x="294" y="591"/>
      <point x="294" y="611" type="curve" smooth="yes"/>
      <point x="294" y="638" type="line" smooth="yes"/>
      <point x="294" y="658"/>
      <point x="278" y="674"/>
      <point x="259" y="674" type="curve" smooth="yes"/>
      <point x="35" y="674" type="line" smooth="yes"/>
      <point x="15" y="674"/>
      <point x="-1" y="658"/>
      <point x="-1" y="638" type="curve" smooth="yes"/>
    </contour>
  </outline>
</glyph>
<glyph name="six" format="1">
  <advance width="362"/>
  <unicode hex="0036"/>
  <outline>
    <contour>
      <point x="-1" y="177" type="line" smooth="yes"/>
      <point x="-1" y="65"/>
      <point x="54" y="0"/>
      <point x="147" y="0" type="curve" smooth="yes"/>
      <point x="197" y="0"/>
      <point x="235" y="23"/>
      <point x="262" y="68" type="curve" smooth="yes"/>
      <point x="283" y="102"/>
      <point x="294" y="147"/>
      <point x="294" y="197" type="curve" smooth="yes"/>
      <point x="294" y="253" type="line" smooth="yes"/>
      <point x="294" y="370"/>
      <point x="254" y="446"/>
      <point x="159" y="446" type="curve" smooth="yes"/>
      <point x="134" y="446"/>
      <point x="109" y="436"/>
      <point x="100" y="419" type="curve"/>
      <point x="100" y="421" type="line" smooth="yes"/>
      <point x="100" y="450"/>
      <point x="98" y="508"/>
      <point x="108" y="538" type="curve" smooth="yes"/>
      <point x="115" y="559"/>
      <point x="130" y="575"/>
      <point x="147" y="575" type="curve" smooth="yes"/>
      <point x="177" y="575"/>
      <point x="194" y="550"/>
      <point x="194" y="503" type="curve" smooth="yes"/>
      <point x="194" y="502" type="line" smooth="yes"/>
      <point x="194" y="483"/>
      <point x="210" y="466"/>
      <point x="230" y="466" type="curve" smooth="yes"/>
      <point x="259" y="466" type="line" smooth="yes"/>
      <point x="278" y="466"/>
      <point x="294" y="483"/>
      <point x="294" y="502" type="curve" smooth="yes"/>
      <point x="294" y="503" type="line" smooth="yes"/>
      <point x="294" y="607"/>
      <point x="245" y="674"/>
      <point x="147" y="674" type="curve" smooth="yes"/>
      <point x="118" y="674"/>
      <point x="79" y="665"/>
      <point x="48" y="627" type="curve" smooth="yes"/>
      <point x="21" y="594"/>
      <point x="-1" y="536"/>
      <point x="-1" y="441" type="curve" smooth="yes"/>
    </contour>
    <contour>
      <point x="100" y="254" type="line" smooth="yes"/>
      <point x="100" y="310"/>
      <point x="116" y="347"/>
      <point x="147" y="347" type="curve" smooth="yes"/>
      <point x="178" y="347"/>
      <point x="194" y="318"/>
      <point x="194" y="253" type="curve" smooth="yes"/>
      <point x="194" y="197" type="line" smooth="yes"/>
      <point x="194" y="181"/>
      <point x="192" y="164"/>
      <point x="190" y="151" type="curve"/>
      <point x="185" y="130"/>
      <point x="174" y="99"/>
      <point x="147" y="99" type="curve" smooth="yes"/>
      <point x="128" y="99"/>
      <point x="116" y="108"/>
      <point x="110" y="121" type="curve"/>
      <point x="101" y="138"/>
      <point x="100" y="160"/>
      <point x="100" y="177" type="curve" smooth="yes"/>
    </contour>
  </outline>
</glyph>
<glyph name="eight" format="1">
  <advance width="382"/>
  <unicode hex="0038"/>
  <outline>
    <contour>
      <point x="276" y="342" type="line"/>
      <point x="299" y="374"/>
      <point x="312" y="420"/>
      <point x="312" y="481" type="curve" smooth="yes"/>
      <point x="312" y="611"/>
      <point x="264" y="674"/>
      <point x="155" y="674" type="curve" smooth="yes"/>
      <point x="45" y="674"/>
      <point x="-2" y="608"/>
      <point x="-2" y="481" type="curve" smooth="yes"/>
      <point x="-2" y="422"/>
      <point x="11" y="375"/>
      <point x="34" y="343" type="curve"/>
      <point x="39" y="337" type="line"/>
      <point x="38" y="336"/>
      <point x="35" y="333"/>
      <point x="34" y="331" type="curve"/>
      <point x="11" y="299"/>
      <point x="-2" y="252"/>
      <point x="-2" y="193" type="curve" smooth="yes"/>
      <point x="-2" y="66"/>
      <point x="45" y="0"/>
      <point x="155" y="0" type="curve" smooth="yes"/>
      <point x="264" y="0"/>
      <point x="312" y="63"/>
      <point x="312" y="193" type="curve" smooth="yes"/>
      <point x="312" y="254"/>
      <point x="299" y="300"/>
      <point x="276" y="332" type="curve"/>
      <point x="272" y="337" type="line"/>
    </contour>
    <contour>
      <point x="103" y="417"/>
      <point x="98" y="442"/>
      <point x="98" y="481" type="curve" smooth="yes"/>
      <point x="98" y="548"/>
      <point x="116" y="575"/>
      <point x="155" y="575" type="curve" smooth="yes"/>
      <point x="195" y="575"/>
      <point x="212" y="548"/>
      <point x="212" y="481" type="curve" smooth="yes"/>
      <point x="212" y="414"/>
      <point x="195" y="387"/>
      <point x="155" y="387" type="curve" smooth="yes"/>
      <point x="135" y="387"/>
      <point x="121" y="392"/>
      <point x="113" y="402" type="curve"/>
    </contour>
    <contour>
      <point x="189" y="105"/>
      <point x="176" y="99"/>
      <point x="155" y="99" type="curve" smooth="yes"/>
      <point x="116" y="99"/>
      <point x="98" y="126"/>
      <point x="98" y="193" type="curve" smooth="yes"/>
      <point x="98" y="261"/>
      <point x="116" y="288"/>
      <point x="155" y="288" type="curve" smooth="yes"/>
      <point x="195" y="288"/>
      <point x="212" y="261"/>
      <point x="212" y="193" type="curve" smooth="yes"/>
      <point x="212" y="155"/>
      <point x="207" y="129"/>
      <point x="196" y="114" type="curve" smooth="yes"/>
    </contour>
  </outline>
</glyph>
<glyph name="colon" format="1">
  <advance width="163"/>
  <unicode hex="003A"/>
  <outline>
    <contour>
      <point x="98" y="495" type="line" smooth="yes"/>
      <point x="98" y="515"/>
      <point x="81" y="531"/>
      <point x="62" y="531" type="curve" smooth="yes"/>
      <point x="34" y="531" type="line" smooth="yes"/>
      <point x="14" y="531"/>
      <point x="-2" y="515"/>
      <point x="-2" y="495" type="curve" smooth="yes"/>
      <point x="-2" y="427" type="line" smooth="yes"/>
      <point x="-2" y="408"/>
      <point x="14" y="392"/>
      <point x="34" y="392" type="curve" smooth="yes"/>
      <point x="62" y="392" type="line" smooth="yes"/>
      <point x="81" y="392"/>
      <point x="98" y="408"/>
      <point x="98" y="427" type="curve" smooth="yes"/>
    </contour>
    <contour>
      <point x="34" y="285" type="line" smooth="yes"/>
      <point x="14" y="285"/>
      <point x="-2" y="269"/>
      <point x="-2" y="249" type="curve" smooth="yes"/>
      <point x="-2" y="181" type="line" smooth="yes"/>
      <point x="-2" y="162"/>
      <point x="14" y="146"/>
      <point x="34" y="146" type="curve" smooth="yes"/>
      <point x="62" y="146" type="line" smooth="yes"/>
      <point x="81" y="146"/>
      <point x="98" y="162"/>
      <point x="98" y="181" type="curve" smooth="yes"/>
      <point x="98" y="249" type="line" smooth="yes"/>
      <point x="98" y="269"/>
      <point x="81" y="285"/>
      <point x="62" y="285" type="curve" smooth="yes"/>
    </contour>
  </outline>
</glyph>
<glyph name="equal" format="1">
  <advance width="362"/>
  <unicode hex="003D"/>
  <outline>
    <contour>
      <point x="3" y="403" type="line" smooth="yes"/>
      <point x="3" y="383"/>
      <point x="19" y="367"/>
      <point x="39" y="367" type="curve" smooth="yes"/>
      <point x="257" y="367" type="line" smooth="yes"/>
      <point x="277" y="367"/>
      <point x="293" y="383"/>
      <point x="293" y="403" type="curve" smooth="yes"/>
      <point x="293" y="431" type="line" smooth="yes"/>
      <point x="293" y="451"/>
      <point x="277" y="467"/>
      <point x="257" y="467" type="curve" smooth="yes"/>
      <point x="39" y="467" type="line" smooth="yes"/>
      <point x="19" y="467"/>
      <point x="3" y="451"/>
      <point x="3" y="431" type="curve" smooth="yes"/>
    </contour>
    <contour>
      <point x="3" y="215" type="line" smooth="yes"/>
      <point x="3" y="196"/>
      <point x="19" y="180"/>
      <point x="39" y="180" type="curve" smooth="yes"/>
      <point x="257" y="180" type="line" smooth="yes"/>
      <point x="277" y="180"/>
      <point x="293" y="196"/>
      <point x="293" y="215" type="curve" smooth="yes"/>
      <point x="293" y="243" type="line" smooth="yes"/>
      <point x="293" y="263"/>
      <point x="277" y="279"/>
      <point x="257" y="279" type="curve" smooth="yes"/>
      <point x="39" y="279" type="line" smooth="yes"/>
      <point x="19" y="279"/>
      <point x="3" y="263"/>
      <point x="3" y="243" type="curve" smooth="yes"/>
    </contour>
  </outline>
</glyph>
<glyph name="greater" format="1">
  <advance width="292"/>
  <unicode hex="003E"/>
  <outline>
    <contour>
      <point x="64" y="189" type="line"/>
      <point x="65" y="189" type="line" smooth="yes"/>
      <point x="94" y="189"/>
      <point x="211" y="313"/>
      <point x="211" y="313" type="curve"/>
      <point x="231" y="333" type="line" smooth="yes"/>
      <point x="245" y="348"/>
      <point x="245" y="369"/>
      <point x="231" y="383" type="curve"/>
      <point x="231" y="383"/>
      <point x="93" y="528"/>
      <point x="59" y="528" type="curve" smooth="yes"/>
      <point x="58" y="528" type="line"/>
      <point x="32" y="528" type="line" smooth="yes"/>
      <point x="-2" y="528"/>
      <point x="-17" y="492"/>
      <point x="7" y="468" type="curve" smooth="yes"/>
      <point x="116" y="358" type="line"/>
      <point x="7" y="249" type="line" smooth="yes"/>
      <point x="-17" y="225"/>
      <point x="-2" y="189"/>
      <point x="32" y="189" type="curve" smooth="yes"/>
    </contour>
  </outline>
</glyph>
<glyph name="F" format="1">
  <advance width="358"/>
  <unicode hex="0046"/>
  <outline>
    <contour>
      <point x="33" y="674" type="line" smooth="yes"/>
      <point x="13" y="674"/>
      <point x="-3" y="658"/>
      <point x="-3" y="638" type="curve" smooth="yes"/>
      <point x="-3" y="36" type="line" smooth="yes"/>
      <point x="-3" y="16"/>
      <point x="13" y="0"/>
      <point x="33" y="0" type="curve" smooth="yes"/>
      <point x="61" y="0" type="line" smooth="yes"/>
      <point x="80" y="0"/>
      <point x="97" y="16"/>
      <point x="97" y="36" type="curve" smooth="yes"/>
      <point x="97" y="288" type="line"/>
      <point x="209" y="288" type="line" smooth="yes"/>
      <point x="229" y="288"/>
      <point x="245" y="304"/>
      <point x="245" y="324" type="curve" smooth="yes"/>
      <point x="245" y="351" type="line" smooth="yes"/>
      <point x="245" y="371"/>
      <point x="229" y="387"/>
      <point x="209" y="387" type="curve" smooth="yes"/>
      <point x="97" y="387" type="line"/>
      <point x="97" y="575" type="line"/>
      <point x="249" y="575" type="line" smooth="yes"/>
      <point x="269" y="575"/>
      <point x="285" y="591"/>
      <point x="285" y="611" type="curve" smooth="yes"/>
      <point x="285" y="638" type="line" smooth="yes"/>
      <point x="285" y="658"/>
      <point x="269" y="674"/>
      <point x="249" y="674" type="curve" smooth="yes"/>
    </contour>
  </outline>
</glyph>
<glyph name="L" format="1">
  <advance width="335"/>
  <unicode hex="004C"/>
  <outline>
    <contour>
      <point x="279" y="63" type="line" smooth="yes"/>
      <point x="279" y="83"/>
      <point x="263" y="99"/>
      <point x="243" y="99" type="curve" smooth="yes"/>
      <point x="94" y="99" type="line"/>
      <point x="94" y="638" type="line" smooth="yes"/>
      <point x="94" y="658"/>
      <point x="78" y="674"/>
      <point x="59" y="674" type="curve" smooth="yes"/>
      <point x="30" y="674" type="line" smooth="yes"/>
      <point x="10" y="674"/>
      <point x="-6" y="658"/>
      <point x="-6" y="638" type="curve" smooth="yes"/>
      <point x="-6" y="36" type="line" smooth="yes"/>
      <point x="-6" y="16"/>
      <point x="10" y="0"/>
      <point x="30" y="0" type="curve" smooth="yes"/>
      <point x="243" y="0" type="line" smooth="yes"/>
      <point x="263" y="0"/>
      <point x="279" y="16"/>
      <point x="279" y="36" type="curve" smooth="yes"/>
    </contour>
  </outline>
</glyph>
<glyph name="O" format="1">
  <advance width="406"/>
  <unicode hex="004F"/>
  <outline>
    <contour>
      <point x="1" y="196" type="line" smooth="yes"/>
      <point x="1" y="117"/>
      <point x="23" y="71"/>
      <point x="54" y="40" type="curve" smooth="yes"/>
      <point x="87" y="8"/>
      <point x="129" y="0"/>
      <point x="165" y="0" type="curve" smooth="yes"/>
      <point x="202" y="0"/>
      <point x="244" y="8"/>
      <point x="277" y="40" type="curve" smooth="yes"/>
      <point x="308" y="71"/>
      <point x="329" y="117"/>
      <point x="329" y="196" type="curve" smooth="yes"/>
      <point x="329" y="479" type="line" smooth="yes"/>
      <point x="329" y="606"/>
      <point x="275" y="674"/>
      <point x="165" y="674" type="curve" smooth="yes"/>
      <point x="56" y="674"/>
      <point x="1" y="605"/>
      <point x="1" y="479" type="curve" smooth="yes"/>
    </contour>
    <contour>
      <point x="101" y="479" type="line" smooth="yes"/>
      <point x="101" y="544"/>
      <point x="121" y="575"/>
      <point x="165" y="575" type="curve" smooth="yes"/>
      <point x="208" y="575"/>
      <point x="229" y="546"/>
      <point x="229" y="479" type="curve" smooth="yes"/>
      <point x="229" y="196" type="line" smooth="yes"/>
      <point x="229" y="128"/>
      <point x="207" y="99"/>
      <point x="165" y="99" type="curve" smooth="yes"/>
      <point x="122" y="99"/>
      <point x="101" y="130"/>
      <point x="101" y="196" type="curve" smooth="yes"/>
    </contour>
  </outline>
</glyph>
<glyph name="P" format="1">
  <advance width="390"/>
  <unicode hex="0050"/>
  <outline>
    <contour>
      <point x="146" y="288" type="line" smooth="yes"/>
      <point x="268" y="288"/>
      <point x="322" y="352"/>
      <point x="322" y="481" type="curve" smooth="yes"/>
      <point x="322" y="610"/>
      <point x="268" y="674"/>
      <point x="146" y="674" type="curve" smooth="yes"/>
      <point x="38" y="674" type="line" smooth="yes"/>
      <point x="18" y="674"/>
      <point x="2" y="658"/>
      <point x="2" y="638" type="curve" smooth="yes"/>
      <point x="2" y="36" type="line" smooth="yes"/>
      <point x="2" y="16"/>
      <point x="18" y="0"/>
      <point x="38" y="0" type="curve" smooth="yes"/>
      <point x="66" y="0" type="line" smooth="yes"/>
      <point x="85" y="0"/>
      <point x="101" y="16"/>
      <point x="101" y="36" type="curve" smooth="yes"/>
      <point x="101" y="288" type="line"/>
    </contour>
    <contour>
      <point x="146" y="575" type="line" smooth="yes"/>
      <point x="200" y="575"/>
      <point x="222" y="548"/>
      <point x="222" y="481" type="curve" smooth="yes"/>
      <point x="222" y="416"/>
      <point x="200" y="387"/>
      <point x="146" y="387" type="curve" smooth="yes"/>
      <point x="101" y="387" type="line"/>
      <point x="101" y="575" type="line"/>
    </contour>
  </outline>
</glyph>
<glyph name="R" format="1">
  <advance width="398"/>
  <unicode hex="0052"/>
  <outline>
    <contour>
      <point x="323" y="204" type="line" smooth="yes"/>
      <point x="323" y="256"/>
      <point x="309" y="297"/>
      <point x="280" y="328" type="curve"/>
      <point x="283" y="331"/>
      <point x="285" y="333"/>
      <point x="288" y="336" type="curve" smooth="yes"/>
      <point x="319" y="367"/>
      <point x="330" y="417"/>
      <point x="330" y="479" type="curve" smooth="yes"/>
      <point x="330" y="613"/>
      <point x="287" y="675"/>
      <point x="164" y="675" type="curve" smooth="yes"/>
      <point x="38" y="675" type="line" smooth="yes"/>
      <point x="18" y="675"/>
      <point x="2" y="659"/>
      <point x="2" y="639" type="curve" smooth="yes"/>
      <point x="2" y="37" type="line" smooth="yes"/>
      <point x="2" y="17"/>
      <point x="18" y="1"/>
      <point x="38" y="1" type="curve" smooth="yes"/>
      <point x="66" y="1" type="line" smooth="yes"/>
      <point x="85" y="1"/>
      <point x="101" y="17"/>
      <point x="101" y="37" type="curve" smooth="yes"/>
      <point x="101" y="282" type="line"/>
      <point x="146" y="282" type="line" smooth="yes"/>
      <point x="195" y="282"/>
      <point x="223" y="254"/>
      <point x="223" y="204" type="curve" smooth="yes"/>
      <point x="223" y="37" type="line" smooth="yes"/>
      <point x="223" y="17"/>
      <point x="239" y="1"/>
      <point x="259" y="1" type="curve" smooth="yes"/>
      <point x="287" y="1" type="line" smooth="yes"/>
      <point x="307" y="1"/>
      <point x="323" y="17"/>
      <point x="323" y="37" type="curve" smooth="yes"/>
    </contour>
    <contour>
      <point x="101" y="575" type="line"/>
      <point x="164" y="575" type="line" smooth="yes"/>
      <point x="216" y="575"/>
      <point x="231" y="547"/>
      <point x="231" y="479" type="curve" smooth="yes"/>
      <point x="231" y="411"/>
      <point x="202" y="383"/>
      <point x="146" y="383" type="curve" smooth="yes"/>
      <point x="101" y="383" type="line"/>
    </contour>
  </outline>
</glyph>
<glyph name="backslash" format="1">
  <advance width="430"/>
  <unicode hex="005C"/>
  <outline>
    <contour>
      <point x="257" y="22" type="line"/>
      <point x="262" y="11"/>
      <point x="278" y="0"/>
      <point x="290" y="0" type="curve" smooth="yes"/>
      <point x="321" y="0" type="line" smooth="yes"/>
      <point x="347" y="0"/>
      <point x="364" y="24"/>
      <point x="354" y="49" type="curve" smooth="yes"/>
      <point x="112" y="652" type="line" smooth="yes"/>
      <point x="108" y="663"/>
      <point x="92" y="674"/>
      <point x="79" y="674" type="curve" smooth="yes"/>
      <point x="49" y="674" type="line" smooth="yes"/>
      <point x="22" y="674"/>
      <point x="6" y="650"/>
      <point x="16" y="625" type="curve" smooth="yes"/>
    </contour>
  </outline>
</glyph>
<glyph name="asciicircum" format="1">
  <advance width="237"/>
  <unicode hex="005E"/>
  <outline>
    <contour>
      <point x="116" y="762" type="line"/>
      <point x="143" y="730" type="line" smooth="yes"/>
      <point x="148" y="724"/>
      <point x="164" y="717"/>
      <point x="171" y="717" type="curve" smooth="yes"/>
      <point x="205" y="717" type="line" smooth="yes"/>
      <point x="237" y="717"/>
      <point x="253" y="751"/>
      <point x="232" y="776" type="curve" smooth="yes"/>
      <point x="169" y="850" type="line"/>
      <point x="165" y="856"/>
      <point x="149" y="863"/>
      <point x="142" y="863" type="curve" smooth="yes"/>
      <point x="108" y="863" type="line"/>
      <point x="103" y="863" type="line"/>
      <point x="90" y="863" type="line" smooth="yes"/>
      <point x="83" y="863"/>
      <point x="68" y="856"/>
      <point x="63" y="850" type="curve" smooth="yes"/>
      <point x="1" y="776" type="line" smooth="yes"/>
      <point x="-21" y="751"/>
      <point x="-5" y="717"/>
      <point x="28" y="717" type="curve" smooth="yes"/>
      <point x="61" y="717" type="line" smooth="yes"/>
      <point x="69" y="717"/>
      <point x="84" y="724"/>
      <point x="88" y="730" type="curve"/>
    </contour>
  </outline>
</glyph>
<glyph name="grave" format="1">
  <advance width="222"/>
  <unicode hex="0060"/>
  <outline>
    <contour>
      <point x="224" y="717"/>
      <point x="237" y="762"/>
      <point x="208" y="782" type="curve"/>
      <point x="208" y="782"/>
      <point x="108" y="863"/>
      <point x="38" y="863" type="curve" smooth="yes"/>
      <point x="2" y="863"/>
      <point x="-12" y="818"/>
      <point x="17" y="798" type="curve"/>
      <point x="17" y="798"/>
      <point x="127" y="717"/>
      <point x="188" y="717" type="curve" smooth="yes"/>
    </contour>
  </outline>
</glyph>
<glyph name="b" format="1">
  <advance width="386"/>
  <unicode hex="0062"/>
  <outline>
    <contour>
      <point x="142" y="0" type="line" smooth="yes"/>
      <point x="259" y="0"/>
      <point x="311" y="64"/>
      <point x="311" y="193" type="curve" smooth="yes"/>
      <point x="311" y="254"/>
      <point x="294" y="305"/>
      <point x="268" y="337" type="curve"/>
      <point x="268" y="337" type="line" smooth="yes"/>
      <point x="268" y="337"/>
      <point x="311" y="388"/>
      <point x="311" y="481" type="curve" smooth="yes"/>
      <point x="311" y="610"/>
      <point x="259" y="674"/>
      <point x="142" y="674" type="curve" smooth="yes"/>
      <point x="43" y="674" type="line" smooth="yes"/>
      <point x="23" y="674"/>
      <point x="7" y="658"/>
      <point x="7" y="638" type="curve" smooth="yes"/>
      <point x="7" y="36" type="line" smooth="yes"/>
      <point x="7" y="16"/>
      <point x="23" y="0"/>
      <point x="43" y="0" type="curve" smooth="yes"/>
    </contour>
    <contour>
      <point x="142" y="575" type="line" smooth="yes"/>
      <point x="191" y="575"/>
      <point x="211" y="548"/>
      <point x="211" y="481" type="curve" smooth="yes"/>
      <point x="211" y="414"/>
      <point x="191" y="387"/>
      <point x="142" y="387" type="curve" smooth="yes"/>
      <point x="107" y="387" type="line"/>
      <point x="107" y="575" type="line"/>
    </contour>
    <contour>
      <point x="142" y="288" type="line" smooth="yes"/>
      <point x="191" y="288"/>
      <point x="211" y="261"/>
      <point x="211" y="193" type="curve" smooth="yes"/>
      <point x="211" y="126"/>
      <point x="191" y="99"/>
      <point x="142" y="99" type="curve" smooth="yes"/>
      <point x="107" y="99" type="line"/>
      <point x="107" y="288" type="line"/>
    </contour>
  </outline>
</glyph>
<glyph name="m" format="1">
  <advance width="443"/>
  <unicode hex="006D"/>
  <outline>
    <contour>
      <point x="189" y="0" type="line" smooth="yes"/>
      <point x="204" y="0"/>
      <point x="220" y="13"/>
      <point x="224" y="29" type="curve"/>
      <point x="257" y="251" type="line"/>
      <point x="257" y="36" type="line" smooth="yes"/>
      <point x="257" y="16"/>
      <point x="273" y="0"/>
      <point x="293" y="0" type="curve" smooth="yes"/>
      <point x="321" y="0" type="line" smooth="yes"/>
      <point x="341" y="0"/>
      <point x="357" y="16"/>
      <point x="357" y="36" type="curve" smooth="yes"/>
      <point x="357" y="638" type="line" smooth="yes"/>
      <point x="357" y="658"/>
      <point x="341" y="674"/>
      <point x="321" y="674" type="curve" smooth="yes"/>
      <point x="291" y="674" type="line" smooth="yes"/>
      <point x="276" y="674"/>
      <point x="259" y="661"/>
      <point x="256" y="646" type="curve" smooth="yes"/>
      <point x="178" y="243" type="line"/>
      <point x="99" y="646" type="line" smooth="yes"/>
      <point x="96" y="661"/>
      <point x="80" y="674"/>
      <point x="65" y="674" type="curve" smooth="yes"/>
      <point x="35" y="674" type="line" smooth="yes"/>
      <point x="15" y="674"/>
      <point x="-1" y="658"/>
      <point x="-1" y="638" type="curve" smooth="yes"/>
      <point x="-1" y="36" type="line" smooth="yes"/>
      <point x="-1" y="16"/>
      <point x="15" y="0"/>
      <point x="35" y="0" type="curve" smooth="yes"/>
      <point x="63" y="0" type="line" smooth="yes"/>
      <point x="82" y="0"/>
      <point x="99" y="16"/>
      <point x="99" y="36" type="curve" smooth="yes"/>
      <point x="99" y="253" type="line"/>
      <point x="133" y="28" type="line"/>
      <point x="136" y="13"/>
      <point x="152" y="0"/>
      <point x="167" y="0" type="curve" smooth="yes"/>
    </contour>
  </outline>
</glyph>
<glyph name="asciitilde" format="1">
  <advance width="322"/>
  <unicode hex="007E"/>
  <outline>
    <contour>
      <point x="65" y="645" type="line" smooth="yes"/>
      <point x="74" y="645"/>
      <point x="90" y="654"/>
      <point x="94" y="661" type="curve"/>
      <point x="99" y="668"/>
      <point x="102" y="670"/>
      <point x="105" y="670" type="curve" smooth="yes"/>
      <point x="109" y="670"/>
      <point x="115" y="668"/>
      <point x="118" y="663" type="curve"/>
      <point x="135" y="645"/>
      <point x="166" y="632"/>
      <point x="198" y="632" type="curve" smooth="yes"/>
      <point x="236" y="632"/>
      <point x="278" y="650"/>
      <point x="303" y="702" type="curve" smooth="yes"/>
      <point x="314" y="727"/>
      <point x="298" y="753"/>
      <point x="270" y="753" type="curve" smooth="yes"/>
      <point x="234" y="753" type="line" smooth="yes"/>
      <point x="221" y="753"/>
      <point x="205" y="741"/>
      <point x="201" y="729" type="curve"/>
      <point x="201" y="730" type="line"/>
      <point x="193" y="730"/>
      <point x="185" y="736"/>
      <point x="178" y="741" type="curve"/>
      <point x="161" y="760"/>
      <point x="134" y="772"/>
      <point x="105" y="772" type="curve" smooth="yes"/>
      <point x="67" y="772"/>
      <point x="24" y="752"/>
      <point x="-4" y="697" type="curve" smooth="yes"/>
      <point x="-17" y="671"/>
      <point x="0" y="645"/>
      <point x="28" y="645" type="curve" smooth="yes"/>
    </contour>
  </outline>
</glyph>
<glyph name="copyright" format="1">
  <advance width="709"/>
  <unicode hex="00A9"/>
  <outline>
    <contour>
      <point x="12" y="154"/>
      <point x="133" y="3"/>
      <point x="321" y="3" type="curve" smooth="yes"/>
      <point x="510" y="3"/>
      <point x="632" y="154"/>
      <point x="632" y="340" type="curve" smooth="yes"/>
      <point x="632" y="526"/>
      <point x="510" y="677"/>
      <point x="321" y="677" type="curve" smooth="yes"/>
      <point x="133" y="677"/>
      <point x="12" y="526"/>
      <point x="12" y="340" type="curve" smooth="yes"/>
    </contour>
    <contour>
      <point x="109" y="472"/>
      <point x="191" y="578"/>
      <point x="321" y="578" type="curve" smooth="yes"/>
      <point x="452" y="578"/>
      <point x="535" y="472"/>
      <point x="535" y="340" type="curve" smooth="yes"/>
      <point x="535" y="206"/>
      <point x="452" y="99"/>
      <point x="321" y="99" type="curve" smooth="yes"/>
      <point x="191" y="99"/>
      <point x="109" y="206"/>
      <point x="109" y="340" type="curve" smooth="yes"/>
    </contour>
    <contour>
      <point x="446" y="287" type="line" smooth="yes"/>
      <point x="446" y="306"/>
      <point x="430" y="322"/>
      <point x="411" y="322" type="curve" smooth="yes"/>
      <point x="384" y="322" type="line" smooth="yes"/>
      <point x="364" y="322"/>
      <point x="348" y="306"/>
      <point x="348" y="287" type="curve" smooth="yes"/>
      <point x="348" y="270" type="line" smooth="yes"/>
      <point x="348" y="248"/>
      <point x="340" y="226"/>
      <point x="319" y="226" type="curve" smooth="yes"/>
      <point x="299" y="226"/>
      <point x="291" y="246"/>
      <point x="291" y="270" type="curve" smooth="yes"/>
      <point x="291" y="415" type="line" smooth="yes"/>
      <point x="291" y="437"/>
      <point x="298" y="458"/>
      <point x="319" y="458" type="curve" smooth="yes"/>
      <point x="340" y="458"/>
      <point x="348" y="439"/>
      <point x="348" y="415" type="curve" smooth="yes"/>
      <point x="348" y="397" type="line" smooth="yes"/>
      <point x="348" y="378"/>
      <point x="364" y="362"/>
      <point x="384" y="362" type="curve" smooth="yes"/>
      <point x="411" y="362" type="line" smooth="yes"/>
      <point x="430" y="362"/>
      <point x="446" y="378"/>
      <point x="446" y="397" type="curve" smooth="yes"/>
      <point x="446" y="415" type="line" smooth="yes"/>
      <point x="446" y="532"/>
      <point x="373" y="556"/>
      <point x="319" y="556" type="curve" smooth="yes"/>
      <point x="265" y="556"/>
      <point x="192" y="532"/>
      <point x="192" y="415" type="curve" smooth="yes"/>
      <point x="192" y="270" type="line" smooth="yes"/>
      <point x="192" y="152"/>
      <point x="265" y="128"/>
      <point x="319" y="128" type="curve" smooth="yes"/>
      <point x="373" y="128"/>
      <point x="446" y="152"/>
      <point x="446" y="270" type="curve" smooth="yes"/>
    </contour>
  </outline>
</glyph>
<glyph name="macron" format="1">
  <advance width="231"/>
  <unicode hex="00AF"/>
  <outline>
    <contour>
      <point x="222" y="781" type="line" smooth="yes"/>
      <point x="222" y="800"/>
      <point x="206" y="816"/>
      <point x="187" y="816" type="curve" smooth="yes"/>
      <point x="29" y="816" type="line" smooth="yes"/>
      <point x="10" y="816"/>
      <point x="-6" y="800"/>
      <point x="-6" y="781" type="curve" smooth="yes"/>
      <point x="-6" y="753" type="line" smooth="yes"/>
      <point x="-6" y="733"/>
      <point x="10" y="717"/>
      <point x="29" y="717" type="curve" smooth="yes"/>
      <point x="187" y="717" type="line" smooth="yes"/>
      <point x="206" y="717"/>
      <point x="222" y="733"/>
      <point x="222" y="753" type="curve" smooth="yes"/>
    </contour>
  </outline>
</glyph>
<glyph name="periodcentered" format="1">
  <advance width="83"/>
  <unicode hex="00B7"/>
  <outline>
    <contour>
      <point x="86" y="401" type="line" smooth="yes"/>
      <point x="86" y="421"/>
      <point x="70" y="437"/>
      <point x="50" y="437" type="curve" smooth="yes"/>
      <point x="22" y="437" type="line" smooth="yes"/>
      <point x="2" y="437"/>
      <point x="-14" y="421"/>
      <point x="-14" y="401" type="curve" smooth="yes"/>
      <point x="-14" y="363" type="line" smooth="yes"/>
      <point x="-14" y="343"/>
      <point x="2" y="327"/>
      <point x="22" y="327" type="curve" smooth="yes"/>
      <point x="50" y="327" type="line" smooth="yes"/>
      <point x="70" y="327"/>
      <point x="86" y="343"/>
      <point x="86" y="363" type="curve" smooth="yes"/>
    </contour>
  </outline>
</glyph>
<glyph name="questiondown" format="1">
  <advance width="353"/>
  <unicode hex="00BF"/>
  <outline>
    <contour>
      <point x="100" y="394"/>
      <point x="75" y="405"/>
      <point x="10" y="301" type="curve" smooth="yes"/>
      <point x="-6" y="274"/>
      <point x="-21" y="235"/>
      <point x="-21" y="187" type="curve" smooth="yes"/>
      <point x="-21" y="138"/>
      <point x="-9" y="97"/>
      <point x="12" y="63" type="curve"/>
      <point x="41" y="22"/>
      <point x="80" y="1"/>
      <point x="126" y="1" type="curve" smooth="yes"/>
      <point x="225" y="1"/>
      <point x="274" y="73"/>
      <point x="274" y="192" type="curve" smooth="yes"/>
      <point x="274" y="205" type="line" smooth="yes"/>
      <point x="274" y="225"/>
      <point x="258" y="241"/>
      <point x="238" y="241" type="curve" smooth="yes"/>
      <point x="210" y="241" type="line" smooth="yes"/>
      <point x="190" y="241"/>
      <point x="174" y="225"/>
      <point x="174" y="205" type="curve" smooth="yes"/>
      <point x="174" y="192" type="line" smooth="yes"/>
      <point x="174" y="156"/>
      <point x="168" y="130"/>
      <point x="158" y="116" type="curve"/>
      <point x="151" y="105"/>
      <point x="141" y="100"/>
      <point x="126" y="100" type="curve" smooth="yes"/>
      <point x="113" y="100"/>
      <point x="102" y="107"/>
      <point x="94" y="118" type="curve"/>
      <point x="84" y="133"/>
      <point x="79" y="158"/>
      <point x="79" y="187" type="curve" smooth="yes"/>
      <point x="79" y="216"/>
      <point x="86" y="235"/>
      <point x="95" y="251" type="curve"/>
      <point x="105" y="267"/>
      <point x="114" y="281"/>
      <point x="124" y="295" type="curve"/>
      <point x="153" y="340"/>
      <point x="200" y="389"/>
      <point x="200" y="484" type="curve" smooth="yes"/>
      <point x="200" y="501" type="line" smooth="yes"/>
      <point x="200" y="521"/>
      <point x="184" y="537"/>
      <point x="164" y="537" type="curve" smooth="yes"/>
      <point x="136" y="537" type="line" smooth="yes"/>
      <point x="117" y="537"/>
      <point x="100" y="521"/>
      <point x="100" y="501" type="curve" smooth="yes"/>
    </contour>
    <contour>
      <point x="100" y="601" type="line" smooth="yes"/>
      <point x="100" y="581"/>
      <point x="117" y="565"/>
      <point x="136" y="565" type="curve" smooth="yes"/>
      <point x="165" y="565" type="line" smooth="yes"/>
      <point x="184" y="565"/>
      <point x="201" y="581"/>
      <point x="201" y="601" type="curve" smooth="yes"/>
      <point x="201" y="639" type="line" smooth="yes"/>
      <point x="201" y="659"/>
      <point x="184" y="675"/>
      <point x="165" y="675" type="curve" smooth="yes"/>
      <point x="136" y="675" type="line" smooth="yes"/>
      <point x="117" y="675"/>
      <point x="100" y="659"/>
      <point x="100" y="639" type="curve" smooth="yes"/>
    </contour>
  </outline>
</glyph>
<glyph name="Acircumflex" format="1">
  <advance width="442"/>
  <unicode hex="00C2"/>
  <outline>
    <contour>
      <point x="273" y="28" type="line"/>
      <point x="277" y="13"/>
      <point x="293" y="0"/>
      <point x="308" y="0" type="curve" smooth="yes"/>
      <point x="337" y="0" type="line" smooth="yes"/>
      <point x="361" y="0"/>
      <point x="377" y="21"/>
      <point x="372" y="44" type="curve" smooth="yes"/>
      <point x="234" y="646" type="line" smooth="yes"/>
      <point x="231" y="661"/>
      <point x="214" y="674"/>
      <point x="199" y="674" type="curve" smooth="yes"/>
      <point x="177" y="674" type="line" smooth="yes"/>
      <point x="162" y="674"/>
      <point x="146" y="661"/>
      <point x="142" y="646" type="curve" smooth="yes"/>
      <point x="51" y="255" type="line"/>
      <point x="3" y="43" type="line" smooth="yes"/>
      <point x="-2" y="20"/>
      <point x="14" y="0"/>
      <point x="38" y="0" type="curve" smooth="yes"/>
      <point x="67" y="0" type="line" smooth="yes"/>
      <point x="82" y="0"/>
      <point x="98" y="13"/>
      <point x="102" y="28" type="curve"/>
      <point x="137" y="184" type="line"/>
      <point x="239" y="184" type="line"/>
    </contour>
    <contour>
      <point x="188" y="443" type="line"/>
      <point x="207" y="358"/>
      <point x="205" y="331"/>
      <point x="216" y="283" type="curve"/>
      <point x="160" y="283" type="line"/>
    </contour>
    <contour>
      <point x="87" y="775" type="line" smooth="yes"/>
      <point x="66" y="750"/>
      <point x="82" y="717"/>
      <point x="115" y="717" type="curve" smooth="yes"/>
      <point x="148" y="717" type="line" smooth="yes"/>
      <point x="156" y="717"/>
      <point x="172" y="724"/>
      <point x="176" y="730" type="curve"/>
      <point x="193" y="759" type="line"/>
      <point x="210" y="730" type="line"/>
      <point x="215" y="724"/>
      <point x="231" y="717"/>
      <point x="238" y="717" type="curve" smooth="yes"/>
      <point x="272" y="717" type="line" smooth="yes"/>
      <point x="304" y="717"/>
      <point x="320" y="750"/>
      <point x="300" y="775" type="curve" smooth="yes"/>
      <point x="239" y="849" type="line" smooth="yes"/>
      <point x="234" y="855"/>
      <point x="218" y="863"/>
      <point x="211" y="863" type="curve" smooth="yes"/>
      <point x="175" y="863" type="line" smooth="yes"/>
      <point x="168" y="863"/>
      <point x="152" y="855"/>
      <point x="148" y="849" type="curve"/>
    </contour>
  </outline>
</glyph>
<glyph name="Ecircumflex" format="1">
  <advance width="353"/>
  <unicode hex="00CA"/>
  <outline>
    <contour>
      <point x="36" y="674" type="line" smooth="yes"/>
      <point x="16" y="674"/>
      <point x="0" y="658"/>
      <point x="0" y="638" type="curve" smooth="yes"/>
      <point x="0" y="36" type="line" smooth="yes"/>
      <point x="0" y="16"/>
      <point x="16" y="0"/>
      <point x="36" y="0" type="curve" smooth="yes"/>
      <point x="252" y="0" type="line" smooth="yes"/>
      <point x="272" y="0"/>
      <point x="288" y="16"/>
      <point x="288" y="36" type="curve" smooth="yes"/>
      <point x="288" y="63" type="line" smooth="yes"/>
      <point x="288" y="83"/>
      <point x="272" y="99"/>
      <point x="252" y="99" type="curve" smooth="yes"/>
      <point x="99" y="99" type="line"/>
      <point x="99" y="288" type="line"/>
      <point x="225" y="288" type="line" smooth="yes"/>
      <point x="245" y="288"/>
      <point x="261" y="304"/>
      <point x="261" y="324" type="curve" smooth="yes"/>
      <point x="261" y="351" type="line" smooth="yes"/>
      <point x="261" y="371"/>
      <point x="245" y="387"/>
      <point x="225" y="387" type="curve" smooth="yes"/>
      <point x="99" y="387" type="line"/>
      <point x="99" y="575" type="line"/>
      <point x="252" y="575" type="line" smooth="yes"/>
      <point x="272" y="575"/>
      <point x="288" y="591"/>
      <point x="288" y="611" type="curve" smooth="yes"/>
      <point x="288" y="638" type="line" smooth="yes"/>
      <point x="288" y="658"/>
      <point x="272" y="674"/>
      <point x="252" y="674" type="curve" smooth="yes"/>
    </contour>
    <contour>
      <point x="37" y="775" type="line" smooth="yes"/>
      <point x="16" y="750"/>
      <point x="32" y="717"/>
      <point x="65" y="717" type="curve" smooth="yes"/>
      <point x="98" y="717" type="line" smooth="yes"/>
      <point x="106" y="717"/>
      <point x="122" y="724"/>
      <point x="126" y="730" type="curve"/>
      <point x="143" y="759" type="line"/>
      <point x="160" y="730" type="line"/>
      <point x="165" y="724"/>
      <point x="181" y="717"/>
      <point x="188" y="717" type="curve" smooth="yes"/>
      <point x="222" y="717" type="line" smooth="yes"/>
      <point x="254" y="717"/>
      <point x="270" y="750"/>
      <point x="250" y="775" type="curve" smooth="yes"/>
      <point x="189" y="849" type="line" smooth="yes"/>
      <point x="184" y="855"/>
      <point x="168" y="863"/>
      <point x="161" y="863" type="curve" smooth="yes"/>
      <point x="125" y="863" type="line" smooth="yes"/>
      <point x="118" y="863"/>
      <point x="102" y="855"/>
      <point x="98" y="849" type="curve"/>
    </contour>
  </outline>
</glyph>
<glyph name="Idieresis" format="1">
  <advance width="159"/>
  <unicode hex="00CF"/>
  <outline>
    <contour>
      <point x="97" y="638" type="line" smooth="yes"/>
      <point x="97" y="658"/>
      <point x="80" y="674"/>
      <point x="61" y="674" type="curve" smooth="yes"/>
      <point x="33" y="674" type="line" smooth="yes"/>
      <point x="13" y="674"/>
      <point x="-3" y="658"/>
      <point x="-3" y="638" type="curve" smooth="yes"/>
      <point x="-3" y="36" type="line" smooth="yes"/>
      <point x="-3" y="16"/>
      <point x="13" y="0"/>
      <point x="33" y="0" type="curve" smooth="yes"/>
      <point x="61" y="0" type="line" smooth="yes"/>
      <point x="80" y="0"/>
      <point x="97" y="16"/>
      <point x="97" y="36" type="curve" smooth="yes"/>
    </contour>
    <contour>
      <point x="42" y="791" type="line" smooth="yes"/>
      <point x="42" y="811"/>
      <point x="26" y="827"/>
      <point x="6" y="827" type="curve" smooth="yes"/>
      <point x="-22" y="827" type="line" smooth="yes"/>
      <point x="-42" y="827"/>
      <point x="-58" y="811"/>
      <point x="-58" y="791" type="curve" smooth="yes"/>
      <point x="-58" y="753" type="line" smooth="yes"/>
      <point x="-58" y="733"/>
      <point x="-42" y="717"/>
      <point x="-22" y="717" type="curve" smooth="yes"/>
      <point x="6" y="717" type="line" smooth="yes"/>
      <point x="26" y="717"/>
      <point x="42" y="733"/>
      <point x="42" y="753" type="curve" smooth="yes"/>
    </contour>
    <contour>
      <point x="173" y="791" type="line" smooth="yes"/>
      <point x="173" y="811"/>
      <point x="157" y="827"/>
      <point x="138" y="827" type="curve" smooth="yes"/>
      <point x="109" y="827" type="line" smooth="yes"/>
      <point x="89" y="827"/>
      <point x="73" y="811"/>
      <point x="73" y="791" type="curve" smooth="yes"/>
      <point x="73" y="753" type="line" smooth="yes"/>
      <point x="73" y="733"/>
      <point x="89" y="717"/>
      <point x="109" y="717" type="curve" smooth="yes"/>
      <point x="138" y="717" type="line" smooth="yes"/>
      <point x="157" y="717"/>
      <point x="173" y="733"/>
      <point x="173" y="753" type="curve" smooth="yes"/>
    </contour>
  </outline>
</glyph>
<glyph name="Eth" format="1">
  <advance width="398"/>
  <unicode hex="00D0"/>
  <outline>
    <contour>
      <point x="139" y="0" type="line" smooth="yes"/>
      <point x="259" y="0"/>
      <point x="314" y="68"/>
      <point x="314" y="198" type="curve" smooth="yes"/>
      <point x="314" y="476" type="line" smooth="yes"/>
      <point x="314" y="606"/>
      <point x="259" y="674"/>
      <point x="139" y="674" type="curve" smooth="yes"/>
      <point x="36" y="674" type="line" smooth="yes"/>
      <point x="16" y="674"/>
      <point x="0" y="658"/>
      <point x="0" y="638" type="curve" smooth="yes"/>
      <point x="0" y="36" type="line" smooth="yes"/>
      <point x="0" y="16"/>
      <point x="16" y="0"/>
      <point x="36" y="0" type="curve" smooth="yes"/>
    </contour>
    <contour>
      <point x="139" y="575" type="line" smooth="yes"/>
      <point x="192" y="575"/>
      <point x="214" y="543"/>
      <point x="214" y="476" type="curve" smooth="yes"/>
      <point x="214" y="198" type="line" smooth="yes"/>
      <point x="214" y="131"/>
      <point x="192" y="99"/>
      <point x="139" y="99" type="curve" smooth="yes"/>
      <point x="99" y="99" type="line"/>
      <point x="99" y="575" type="line"/>
    </contour>
    <contour>
      <point x="203" y="350" type="line" smooth="yes"/>
      <point x="203" y="370"/>
      <point x="187" y="386"/>
      <point x="167" y="386" type="curve" smooth="yes"/>
      <point x="-51" y="386" type="line" smooth="yes"/>
      <point x="-70" y="386"/>
      <point x="-86" y="370"/>
      <point x="-86" y="350" type="curve" smooth="yes"/>
      <point x="-86" y="323" type="line" smooth="yes"/>
      <point x="-86" y="303"/>
      <point x="-70" y="287"/>
      <point x="-51" y="287" type="curve" smooth="yes"/>
      <point x="167" y="287" type="line" smooth="yes"/>
      <point x="187" y="287"/>
      <point x="203" y="303"/>
      <point x="203" y="323" type="curve" smooth="yes"/>
    </contour>
  </outline>
</glyph>
<glyph name="Thorn" format="1">
  <advance width="386"/>
  <unicode hex="00DE"/>
  <outline>
    <contour>
      <point x="95" y="174" type="line"/>
      <point x="177" y="174" type="line" smooth="yes"/>
      <point x="301" y="174"/>
      <point x="365" y="244"/>
      <point x="365" y="340" type="curve" smooth="yes"/>
      <point x="365" y="436"/>
      <point x="304" y="505"/>
      <point x="177" y="505" type="curve" smooth="yes"/>
      <point x="95" y="505" type="line"/>
      <point x="95" y="638" type="line" smooth="yes"/>
      <point x="95" y="658"/>
      <point x="79" y="674"/>
      <point x="59" y="674" type="curve" smooth="yes"/>
      <point x="32" y="674" type="line" smooth="yes"/>
      <point x="12" y="674"/>
      <point x="-4" y="658"/>
      <point x="-4" y="638" type="curve" smooth="yes"/>
      <point x="-4" y="36" type="line" smooth="yes"/>
      <point x="-4" y="16"/>
      <point x="12" y="0"/>
      <point x="32" y="0" type="curve" smooth="yes"/>
      <point x="59" y="0" type="line" smooth="yes"/>
      <point x="79" y="0"/>
      <point x="95" y="16"/>
      <point x="95" y="36" type="curve" smooth="yes"/>
    </contour>
    <contour>
      <point x="95" y="406" type="line"/>
      <point x="177" y="406" type="line" smooth="yes"/>
      <point x="241" y="406"/>
      <point x="266" y="376"/>
      <point x="266" y="340" type="curve" smooth="yes"/>
      <point x="266" y="304"/>
      <point x="241" y="274"/>
      <point x="177" y="274" type="curve" smooth="yes"/>
      <point x="95" y="274" type="line"/>
    </contour>
  </outline>
</glyph>
<glyph name="germandbls" format="1">
  <advance width="376"/>
  <unicode hex="00DF"/>
  <outline>
    <contour>
      <point x="92" y="434" type="line" smooth="yes"/>
      <point x="92" y="539"/>
      <point x="119" y="554"/>
      <point x="140" y="554" type="curve" smooth="yes"/>
      <point x="184" y="554"/>
      <point x="193" y="522"/>
      <point x="193" y="473" type="curve" smooth="yes"/>
      <point x="193" y="408"/>
      <point x="181" y="373"/>
      <point x="144" y="373" type="curve" smooth="yes"/>
      <point x="125" y="373"/>
      <point x="109" y="358"/>
      <point x="109" y="339" type="curve" smooth="yes"/>
      <point x="109" y="312" type="line" smooth="yes"/>
      <point x="109" y="293"/>
      <point x="125" y="278"/>
      <point x="144" y="278" type="curve" smooth="yes"/>
      <point x="182" y="278"/>
      <point x="223" y="257"/>
      <point x="223" y="184" type="curve" smooth="yes"/>
      <point x="223" y="112"/>
      <point x="200" y="96"/>
      <point x="150" y="96" type="curve" smooth="yes"/>
      <point x="144" y="96" type="line" smooth="yes"/>
      <point x="125" y="96"/>
      <point x="109" y="80"/>
      <point x="109" y="61" type="curve" smooth="yes"/>
      <point x="109" y="34" type="line" smooth="yes"/>
      <point x="109" y="16"/>
      <point x="125" y="0"/>
      <point x="144" y="0" type="curve" smooth="yes"/>
      <point x="150" y="0" type="line" smooth="yes"/>
      <point x="257" y="0"/>
      <point x="320" y="40"/>
      <point x="320" y="184" type="curve" smooth="yes"/>
      <point x="320" y="257"/>
      <point x="290" y="307"/>
      <point x="249" y="334" type="curve"/>
      <point x="271" y="365"/>
      <point x="290" y="415"/>
      <point x="290" y="473" type="curve" smooth="yes"/>
      <point x="290" y="576"/>
      <point x="255" y="650"/>
      <point x="142" y="650" type="curve" smooth="yes"/>
      <point x="114" y="650"/>
      <point x="-8" y="649"/>
      <point x="-4" y="443" type="curve" smooth="yes"/>
      <point x="-4" y="34" type="line" smooth="yes"/>
      <point x="-4" y="16"/>
      <point x="11" y="0"/>
      <point x="30" y="0" type="curve" smooth="yes"/>
      <point x="58" y="0" type="line" smooth="yes"/>
      <point x="77" y="0"/>
      <point x="92" y="16"/>
      <point x="92" y="34" type="curve" smooth="yes"/>
    </contour>
  </outline>
</glyph>
<glyph name="aring" format="1">
  <advance width="442"/>
  <unicode hex="00E5"/>
  <outline>
    <contour>
      <point x="239" y="184" type="line"/>
      <point x="137" y="184" type="line"/>
      <point x="102" y="28" type="line"/>
      <point x="98" y="13"/>
      <point x="82" y="0"/>
      <point x="67" y="0" type="curve" smooth="yes"/>
      <point x="38" y="0" type="line" smooth="yes"/>
      <point x="14" y="0"/>
      <point x="-2" y="20"/>
      <point x="3" y="43" type="curve" smooth="yes"/>
      <point x="51" y="255" type="line"/>
      <point x="142" y="646" type="line" smooth="yes"/>
      <point x="146" y="661"/>
      <point x="162" y="674"/>
      <point x="177" y="674" type="curve" smooth="yes"/>
      <point x="199" y="674" type="line" smooth="yes"/>
      <point x="214" y="674"/>
      <point x="231" y="661"/>
      <point x="234" y="646" type="curve" smooth="yes"/>
      <point x="372" y="44" type="line" smooth="yes"/>
      <point x="377" y="21"/>
      <point x="361" y="0"/>
      <point x="337" y="0" type="curve" smooth="yes"/>
      <point x="308" y="0" type="line" smooth="yes"/>
      <point x="293" y="0"/>
      <point x="277" y="13"/>
      <point x="273" y="28" type="curve"/>
    </contour>
    <contour>
      <point x="160" y="283" type="line"/>
      <point x="216" y="283" type="line"/>
      <point x="205" y="331"/>
      <point x="207" y="358"/>
      <point x="188" y="443" type="curve"/>
    </contour>
    <contour>
      <point x="121" y="748"/>
      <point x="154" y="714"/>
      <point x="196" y="714" type="curve" smooth="yes"/>
      <point x="237" y="714"/>
      <point x="271" y="748"/>
      <point x="271" y="789" type="curve" smooth="yes"/>
      <point x="271" y="830"/>
      <point x="237" y="864"/>
      <point x="196" y="864" type="curve" smooth="yes"/>
      <point x="154" y="864"/>
      <point x="121" y="830"/>
      <point x="121" y="789" type="curve" smooth="yes"/>
    </contour>
    <contour>
      <point x="216" y="776"/>
      <point x="206" y="767"/>
      <point x="195" y="767" type="curve" smooth="yes"/>
      <point x="182" y="767"/>
      <point x="173" y="776"/>
      <point x="173" y="789" type="curve" smooth="yes"/>
      <point x="173" y="800"/>
      <point x="182" y="810"/>
      <point x="195" y="810" type="curve" smooth="yes"/>
      <point x="206" y="810"/>
      <point x="216" y="800"/>
      <point x="216" y="789" type="curve" smooth="yes"/>
    </contour>
  </outline>
</glyph>
<glyph name="ae" format="1">
  <advance width="665"/>
  <unicode hex="00E6"/>
  <outline>
    <contour>
      <point x="306" y="650" type="line" smooth="yes"/>
      <point x="295" y="650"/>
      <point x="280" y="640"/>
      <point x="275" y="629" type="curve" smooth="yes"/>
      <point x="13" y="48" type="line"/>
      <point x="1" y="24"/>
      <point x="17" y="0"/>
      <point x="44" y="0" type="curve" smooth="yes"/>
      <point x="73" y="0" type="line" smooth="yes"/>
      <point x="84" y="0"/>
      <point x="100" y="10"/>
      <point x="104" y="20" type="curve"/>
      <point x="128" y="72"/>
      <point x="152" y="125"/>
      <point x="177" y="178" type="curve"/>
      <point x="274" y="178" type="line"/>
      <point x="274" y="34" type="line" smooth="yes"/>
      <point x="274" y="16"/>
      <point x="289" y="0"/>
      <point x="308" y="0" type="curve" smooth="yes"/>
      <point x="517" y="0" type="line" smooth="yes"/>
      <point x="536" y="0"/>
      <point x="551" y="16"/>
      <point x="551" y="34" type="curve" smooth="yes"/>
      <point x="551" y="61" type="line" smooth="yes"/>
      <point x="551" y="80"/>
      <point x="536" y="96"/>
      <point x="517" y="96" type="curve" smooth="yes"/>
      <point x="369" y="96" type="line"/>
      <point x="369" y="278" type="line"/>
      <point x="517" y="278" type="line" smooth="yes"/>
      <point x="536" y="278"/>
      <point x="551" y="293"/>
      <point x="551" y="312" type="curve" smooth="yes"/>
      <point x="551" y="339" type="line" smooth="yes"/>
      <point x="551" y="358"/>
      <point x="536" y="373"/>
      <point x="517" y="373" type="curve" smooth="yes"/>
      <point x="369" y="373" type="line"/>
      <point x="369" y="554" type="line"/>
      <point x="517" y="554" type="line" smooth="yes"/>
      <point x="536" y="554"/>
      <point x="551" y="570"/>
      <point x="551" y="589" type="curve" smooth="yes"/>
      <point x="551" y="616" type="line" smooth="yes"/>
      <point x="551" y="634"/>
      <point x="536" y="650"/>
      <point x="517" y="650" type="curve" smooth="yes"/>
    </contour>
    <contour>
      <point x="220" y="273" type="line"/>
      <point x="274" y="391" type="line"/>
      <point x="274" y="273" type="line"/>
    </contour>
  </outline>
</glyph>
<glyph name="egrave" format="1">
  <advance width="353"/>
  <unicode hex="00E8"/>
  <outline>
    <contour>
      <point x="36" y="674" type="line" smooth="yes"/>
      <point x="16" y="674"/>
      <point x="0" y="658"/>
      <point x="0" y="638" type="curve" smooth="yes"/>
      <point x="0" y="36" type="line" smooth="yes"/>
      <point x="0" y="16"/>
      <point x="16" y="0"/>
      <point x="36" y="0" type="curve" smooth="yes"/>
      <point x="252" y="0" type="line" smooth="yes"/>
      <point x="272" y="0"/>
      <point x="288" y="16"/>
      <point x="288" y="36" type="curve" smooth="yes"/>
      <point x="288" y="63" type="line" smooth="yes"/>
      <point x="288" y="83"/>
      <point x="272" y="99"/>
      <point x="252" y="99" type="curve" smooth="yes"/>
      <point x="99" y="99" type="line"/>
      <point x="99" y="288" type="line"/>
      <point x="225" y="288" type="line" smooth="yes"/>
      <point x="245" y="288"/>
      <point x="261" y="304"/>
      <point x="261" y="324" type="curve" smooth="yes"/>
      <point x="261" y="351" type="line" smooth="yes"/>
      <point x="261" y="371"/>
      <point x="245" y="387"/>
      <point x="225" y="387" type="curve" smooth="yes"/>
      <point x="99" y="387" type="line"/>
      <point x="99" y="575" type="line"/>
      <point x="252" y="575" type="line" smooth="yes"/>
      <point x="272" y="575"/>
      <point x="288" y="591"/>
      <point x="288" y="611" type="curve" smooth="yes"/>
      <point x="288" y="638" type="line" smooth="yes"/>
      <point x="288" y="658"/>
      <point x="272" y="674"/>
      <point x="252" y="674" type="curve" smooth="yes"/>
    </contour>
    <contour>
      <point x="270" y="717"/>
      <point x="283" y="762"/>
      <point x="254" y="782" type="curve"/>
      <point x="254" y="782"/>
      <point x="154" y="863"/>
      <point x="84" y="863" type="curve" smooth="yes"/>
      <point x="48" y="863"/>
      <point x="34" y="818"/>
      <point x="63" y="798" type="curve"/>
      <point x="63" y="798"/>
      <point x="173" y="717"/>
      <point x="234" y="717" type="curve" smooth="yes"/>
    </contour>
  </outline>
</glyph>
<glyph name="icircumflex" format="1">
  <advance width="159"/>
  <unicode hex="00EE"/>
  <outline>
    <contour>
      <point x="97" y="638" type="line" smooth="yes"/>
      <point x="97" y="658"/>
      <point x="80" y="674"/>
      <point x="61" y="674" type="curve" smooth="yes"/>
      <point x="33" y="674" type="line" smooth="yes"/>
      <point x="13" y="674"/>
      <point x="-3" y="658"/>
      <point x="-3" y="638" type="curve" smooth="yes"/>
      <point x="-3" y="36" type="line" smooth="yes"/>
      <point x="-3" y="16"/>
      <point x="13" y="0"/>
      <point x="33" y="0" type="curve" smooth="yes"/>
      <point x="61" y="0" type="line" smooth="yes"/>
      <point x="80" y="0"/>
      <point x="97" y="16"/>
      <point x="97" y="36" type="curve" smooth="yes"/>
    </contour>
    <contour>
      <point x="-54" y="775" type="line" smooth="yes"/>
      <point x="-75" y="750"/>
      <point x="-59" y="717"/>
      <point x="-26" y="717" type="curve" smooth="yes"/>
      <point x="7" y="717" type="line" smooth="yes"/>
      <point x="15" y="717"/>
      <point x="31" y="724"/>
      <point x="35" y="730" type="curve"/>
      <point x="52" y="759" type="line"/>
      <point x="69" y="730" type="line"/>
      <point x="74" y="724"/>
      <point x="90" y="717"/>
      <point x="97" y="717" type="curve" smooth="yes"/>
      <point x="131" y="717" type="line" smooth="yes"/>
      <point x="163" y="717"/>
      <point x="179" y="750"/>
      <point x="159" y="775" type="curve" smooth="yes"/>
      <point x="98" y="849" type="line" smooth="yes"/>
      <point x="93" y="855"/>
      <point x="77" y="863"/>
      <point x="70" y="863" type="curve" smooth="yes"/>
      <point x="34" y="863" type="line" smooth="yes"/>
      <point x="27" y="863"/>
      <point x="11" y="855"/>
      <point x="7" y="849" type="curve"/>
    </contour>
  </outline>
</glyph>
<glyph name="ograve" format="1">
  <advance width="406"/>
  <unicode hex="00F2"/>
  <outline>
    <contour>
      <point x="1" y="196" type="line" smooth="yes"/>
      <point x="1" y="117"/>
      <point x="23" y="71"/>
      <point x="54" y="40" type="curve" smooth="yes"/>
      <point x="87" y="8"/>
      <point x="129" y="0"/>
      <point x="165" y="0" type="curve" smooth="yes"/>
      <point x="202" y="0"/>
      <point x="244" y="8"/>
      <point x="277" y="40" type="curve" smooth="yes"/>
      <point x="308" y="71"/>
      <point x="329" y="117"/>
      <point x="329" y="196" type="curve" smooth="yes"/>
      <point x="329" y="479" type="line" smooth="yes"/>
      <point x="329" y="606"/>
      <point x="275" y="674"/>
      <point x="165" y="674" type="curve" smooth="yes"/>
      <point x="56" y="674"/>
      <point x="1" y="605"/>
      <point x="1" y="479" type="curve" smooth="yes"/>
    </contour>
    <contour>
      <point x="101" y="479" type="line" smooth="yes"/>
      <point x="101" y="544"/>
      <point x="121" y="575"/>
      <point x="165" y="575" type="curve" smooth="yes"/>
      <point x="208" y="575"/>
      <point x="229" y="546"/>
      <point x="229" y="479" type="curve" smooth="yes"/>
      <point x="229" y="196" type="line" smooth="yes"/>
      <point x="229" y="128"/>
      <point x="207" y="99"/>
      <point x="165" y="99" type="curve" smooth="yes"/>
      <point x="122" y="99"/>
      <point x="101" y="130"/>
      <point x="101" y="196" type="curve" smooth="yes"/>
    </contour>
    <contour>
      <point x="290" y="717"/>
      <point x="303" y="762"/>
      <point x="274" y="782" type="curve"/>
      <point x="274" y="782"/>
      <point x="174" y="863"/>
      <point x="104" y="863" type="curve" smooth="yes"/>
      <point x="68" y="863"/>
      <point x="54" y="818"/>
      <point x="83" y="798" type="curve"/>
      <point x="83" y="798"/>
      <point x="193" y="717"/>
      <point x="254" y="717" type="curve" smooth="yes"/>
    </contour>
  </outline>
</glyph>
<glyph name="thorn" format="1">
  <advance width="386"/>
  <unicode hex="00FE"/>
  <outline>
    <contour>
      <point x="95" y="168" type="line"/>
      <point x="175" y="168" type="line" smooth="yes"/>
      <point x="294" y="168"/>
      <point x="356" y="235"/>
      <point x="356" y="328" type="curve" smooth="yes"/>
      <point x="356" y="421"/>
      <point x="297" y="487"/>
      <point x="175" y="487" type="curve" smooth="yes"/>
      <point x="95" y="487" type="line"/>
      <point x="95" y="616" type="line" smooth="yes"/>
      <point x="95" y="634"/>
      <point x="80" y="650"/>
      <point x="61" y="650" type="curve" smooth="yes"/>
      <point x="34" y="650" type="line" smooth="yes"/>
      <point x="15" y="650"/>
      <point x="0" y="634"/>
      <point x="0" y="616" type="curve" smooth="yes"/>
      <point x="0" y="34" type="line" smooth="yes"/>
      <point x="0" y="16"/>
      <point x="15" y="0"/>
      <point x="34" y="0" type="curve" smooth="yes"/>
      <point x="61" y="0" type="line" smooth="yes"/>
      <point x="80" y="0"/>
      <point x="95" y="16"/>
      <point x="95" y="34" type="curve" smooth="yes"/>
    </contour>
    <contour>
      <point x="95" y="391" type="line"/>
      <point x="175" y="391" type="line" smooth="yes"/>
      <point x="236" y="391"/>
      <point x="260" y="363"/>
      <point x="260" y="328" type="curve" smooth="yes"/>
      <point x="260" y="293"/>
      <point x="236" y="265"/>
      <point x="175" y="265" type="curve" smooth="yes"/>
      <point x="95" y="265" type="line"/>
    </contour>
  </outline>
</glyph>
<glyph name="ydieresis" format="1">
  <advance width="406"/>
  <unicode hex="00FF"/>
  <outline>
    <contour>
      <point x="84" y="653" type="line" smooth="yes"/>
      <point x="80" y="663"/>
      <point x="63" y="674"/>
      <point x="51" y="674" type="curve" smooth="yes"/>
      <point x="19" y="674" type="line" smooth="yes"/>
      <point x="-9" y="674"/>
      <point x="-25" y="649"/>
      <point x="-14" y="624" type="curve" smooth="yes"/>
      <point x="29" y="524"/>
      <point x="73" y="425"/>
      <point x="116" y="325" type="curve"/>
      <point x="116" y="36" type="line" smooth="yes"/>
      <point x="116" y="16"/>
      <point x="132" y="0"/>
      <point x="151" y="0" type="curve" smooth="yes"/>
      <point x="179" y="0" type="line" smooth="yes"/>
      <point x="199" y="0"/>
      <point x="215" y="16"/>
      <point x="215" y="36" type="curve" smooth="yes"/>
      <point x="215" y="324" type="line"/>
      <point x="344" y="624" type="line" smooth="yes"/>
      <point x="354" y="649"/>
      <point x="338" y="674"/>
      <point x="311" y="674" type="curve" smooth="yes"/>
      <point x="278" y="674" type="line" smooth="yes"/>
      <point x="267" y="674"/>
      <point x="250" y="663"/>
      <point x="245" y="653" type="curve"/>
      <point x="165" y="469" type="line"/>
    </contour>
    <contour>
      <point x="154" y="791" type="line" smooth="yes"/>
      <point x="154" y="811"/>
      <point x="138" y="827"/>
      <point x="118" y="827" type="curve" smooth="yes"/>
      <point x="90" y="827" type="line" smooth="yes"/>
      <point x="70" y="827"/>
      <point x="54" y="811"/>
      <point x="54" y="791" type="curve" smooth="yes"/>
      <point x="54" y="753" type="line" smooth="yes"/>
      <point x="54" y="733"/>
      <point x="70" y="717"/>
      <point x="90" y="717" type="curve" smooth="yes"/>
      <point x="118" y="717" type="line" smooth="yes"/>
      <point x="138" y="717"/>
      <point x="154" y="733"/>
      <point x="154" y="753" type="curve" smooth="yes"/>
    </contour>
    <contour>
      <point x="285" y="791" type="line" smooth="yes"/>
      <point x="285" y="811"/>
      <point x="269" y="827"/>
      <point x="250" y="827" type="curve" smooth="yes"/>
      <point x="221" y="827" type="line" smooth="yes"/>
      <point x="201" y="827"/>
      <point x="185" y="811"/>
      <point x="185" y="791" type="curve" smooth="yes"/>
      <point x="185" y="753" type="line" smooth="yes"/>
      <point x="185" y="733"/>
      <point x="201" y="717"/>
      <point x="221" y="717" type="curve" smooth="yes"/>
      <point x="250" y="717" type="line" smooth="yes"/>
      <point x="269" y="717"/>
      <point x="285" y="733"/>
      <point x="285" y="753" type="curve" smooth="yes"/>
    </contour>
  </outline>
</glyph>
<glyph name="Ccircumflex" format="1">
  <advance width="394"/>
  <unicode hex="0108"/>
  <outline>
    <contour>
      <point x="-1" y="196" type="line" smooth="yes"/>
      <point x="-1" y="117"/>
      <point x="21" y="71"/>
      <point x="52" y="40" type="curve" smooth="yes"/>
      <point x="85" y="8"/>
      <point x="126" y="0"/>
      <point x="164" y="0" type="curve" smooth="yes"/>
      <point x="200" y="0"/>
      <point x="242" y="8"/>
      <point x="275" y="40" type="curve" smooth="yes"/>
      <point x="306" y="71"/>
      <point x="327" y="117"/>
      <point x="327" y="196" type="curve" smooth="yes"/>
      <point x="327" y="210" type="line" smooth="yes"/>
      <point x="327" y="230"/>
      <point x="311" y="246"/>
      <point x="292" y="246" type="curve" smooth="yes"/>
      <point x="263" y="246" type="line" smooth="yes"/>
      <point x="243" y="246"/>
      <point x="227" y="230"/>
      <point x="227" y="210" type="curve" smooth="yes"/>
      <point x="227" y="196" type="line" smooth="yes"/>
      <point x="227" y="160"/>
      <point x="222" y="133"/>
      <point x="210" y="117" type="curve"/>
      <point x="201" y="107"/>
      <point x="183" y="99"/>
      <point x="164" y="99" type="curve" smooth="yes"/>
      <point x="121" y="99"/>
      <point x="100" y="129"/>
      <point x="100" y="196" type="curve" smooth="yes"/>
      <point x="100" y="479" type="line" smooth="yes"/>
      <point x="100" y="546"/>
      <point x="122" y="575"/>
      <point x="164" y="575" type="curve" smooth="yes"/>
      <point x="205" y="575"/>
      <point x="227" y="546"/>
      <point x="227" y="479" type="curve" smooth="yes"/>
      <point x="227" y="465" type="line" smooth="yes"/>
      <point x="227" y="445"/>
      <point x="243" y="429"/>
      <point x="263" y="429" type="curve" smooth="yes"/>
      <point x="292" y="429" type="line" smooth="yes"/>
      <point x="311" y="429"/>
      <point x="327" y="445"/>
      <point x="327" y="465" type="curve" smooth="yes"/>
      <point x="327" y="479" type="line" smooth="yes"/>
      <point x="327" y="555"/>
      <point x="306" y="605"/>
      <point x="274" y="635" type="curve" smooth="yes"/>
      <point x="241" y="665"/>
      <point x="201" y="674"/>
      <point x="164" y="674" type="curve" smooth="yes"/>
      <point x="126" y="674"/>
      <point x="86" y="665"/>
      <point x="53" y="635" type="curve" smooth="yes"/>
      <point x="21" y="605"/>
      <point x="-1" y="555"/>
      <point x="-1" y="479" type="curve" smooth="yes"/>
    </contour>
    <contour>
      <point x="57" y="775" type="line" smooth="yes"/>
      <point x="36" y="750"/>
      <point x="52" y="717"/>
      <point x="85" y="717" type="curve" smooth="yes"/>
      <point x="118" y="717" type="line" smooth="yes"/>
      <point x="126" y="717"/>
      <point x="142" y="724"/>
      <point x="146" y="730" type="curve"/>
      <point x="163" y="759" type="line"/>
      <point x="180" y="730" type="line"/>
      <point x="185" y="724"/>
      <point x="201" y="717"/>
      <point x="208" y="717" type="curve" smooth="yes"/>
      <point x="242" y="717" type="line" smooth="yes"/>
      <point x="274" y="717"/>
      <point x="290" y="750"/>
      <point x="270" y="775" type="curve" smooth="yes"/>
      <point x="209" y="849" type="line" smooth="yes"/>
      <point x="204" y="855"/>
      <point x="188" y="863"/>
      <point x="181" y="863" type="curve" smooth="yes"/>
      <point x="145" y="863" type="line" smooth="yes"/>
      <point x="138" y="863"/>
      <point x="122" y="855"/>
      <point x="118" y="849" type="curve"/>
    </contour>
  </outline>
</glyph>
<glyph name="Ccaron" format="1">
  <advance width="394"/>
  <unicode hex="010C"/>
  <outline>
    <contour>
      <point x="-1" y="196" type="line" smooth="yes"/>
      <point x="-1" y="117"/>
      <point x="21" y="71"/>
      <point x="52" y="40" type="curve" smooth="yes"/>
      <point x="85" y="8"/>
      <point x="126" y="0"/>
      <point x="164" y="0" type="curve" smooth="yes"/>
      <point x="200" y="0"/>
      <point x="242" y="8"/>
      <point x="275" y="40" type="curve" smooth="yes"/>
      <point x="306" y="71"/>
      <point x="327" y="117"/>
      <point x="327" y="196" type="curve" smooth="yes"/>
      <point x="327" y="210" type="line" smooth="yes"/>
      <point x="327" y="230"/>
      <point x="311" y="246"/>
      <point x="292" y="246" type="curve" smooth="yes"/>
      <point x="263" y="246" type="line" smooth="yes"/>
      <point x="243" y="246"/>
      <point x="227" y="230"/>
      <point x="227" y="210" type="curve" smooth="yes"/>
      <point x="227" y="196" type="line" smooth="yes"/>
      <point x="227" y="160"/>
      <point x="222" y="133"/>
      <point x="210" y="117" type="curve"/>
      <point x="201" y="107"/>
      <point x="183" y="99"/>
      <point x="164" y="99" type="curve" smooth="yes"/>
      <point x="121" y="99"/>
      <point x="100" y="129"/>
      <point x="100" y="196" type="curve" smooth="yes"/>
      <point x="100" y="479" type="line" smooth="yes"/>
      <point x="100" y="546"/>
      <point x="122" y="575"/>
      <point x="164" y="575" type="curve" smooth="yes"/>
      <point x="205" y="575"/>
      <point x="227" y="546"/>
      <point x="227" y="479" type="curve" smooth="yes"/>
      <point x="227" y="465" type="line" smooth="yes"/>
      <point x="227" y="445"/>
      <point x="243" y="429"/>
      <point x="263" y="429" type="curve" smooth="yes"/>
      <point x="292" y="429" type="line" smooth="yes"/>
      <point x="311" y="429"/>
      <point x="327" y="445"/>
      <point x="327" y="465" type="curve" smooth="yes"/>
      <point x="327" y="479" type="line" smooth="yes"/>
      <point x="327" y="555"/>
      <point x="306" y="605"/>
      <point x="274" y="635" type="curve" smooth="yes"/>
      <point x="241" y="665"/>
      <point x="201" y="674"/>
      <point x="164" y="674" type="curve" smooth="yes"/>
      <point x="126" y="674"/>
      <point x="86" y="665"/>
      <point x="53" y="635" type="curve" smooth="yes"/>
      <point x="21" y="605"/>
      <point x="-1" y="555"/>
      <point x="-1" y="479" type="curve" smooth="yes"/>
    </contour>
    <contour>
      <point x="165" y="819" type="line"/>
      <point x="148" y="849" type="line"/>
      <point x="144" y="855"/>
      <point x="128" y="863"/>
      <point x="120" y="863" type="curve" smooth="yes"/>
      <point x="87" y="863" type="line" smooth="yes"/>
      <point x="54" y="863"/>
      <point x="38" y="830"/>
      <point x="59" y="805" type="curve" smooth="yes"/>
      <point x="120" y="731" type="line"/>
      <point x="124" y="725"/>
      <point x="140" y="717"/>
      <point x="147" y="717" type="curve" smooth="yes"/>
      <point x="183" y="717" type="line" smooth="yes"/>
      <point x="190" y="717"/>
      <point x="206" y="725"/>
      <point x="211" y="731" type="curve" smooth="yes"/>
      <point x="272" y="805" type="line" smooth="yes"/>
      <point x="292" y="830"/>
      <point x="276" y="863"/>
      <point x="244" y="863" type="curve" smooth="yes"/>
      <point x="210" y="863" type="line" smooth="yes"/>
      <point x="203" y="863"/>
      <point x="187" y="855"/>
      <point x="182" y="849" type="curve"/>
    </contour>
  </outline>
</glyph>
<glyph name="dcaron" format="1">
  <advance width="398"/>
  <unicode hex="010F"/>
  <outline>
    <contour>
      <point x="141" y="0" type="line" smooth="yes"/>
      <point x="261" y="0"/>
      <point x="317" y="68"/>
      <point x="317" y="198" type="curve" smooth="yes"/>
      <point x="317" y="476" type="line" smooth="yes"/>
      <point x="317" y="606"/>
      <point x="261" y="674"/>
      <point x="141" y="674" type="curve" smooth="yes"/>
      <point x="39" y="674" type="line" smooth="yes"/>
      <point x="19" y="674"/>
      <point x="3" y="658"/>
      <point x="3" y="638" type="curve" smooth="yes"/>
      <point x="3" y="36" type="line" smooth="yes"/>
      <point x="3" y="16"/>
      <point x="19" y="0"/>
      <point x="39" y="0" type="curve" smooth="yes"/>
    </contour>
    <contour>
      <point x="141" y="575" type="line" smooth="yes"/>
      <point x="194" y="575"/>
      <point x="216" y="543"/>
      <point x="216" y="476" type="curve" smooth="yes"/>
      <point x="216" y="198" type="line" smooth="yes"/>
      <point x="216" y="131"/>
      <point x="194" y="99"/>
      <point x="141" y="99" type="curve" smooth="yes"/>
      <point x="102" y="99" type="line"/>
      <point x="102" y="575" type="line"/>
    </contour>
    <contour>
      <point x="145" y="819" type="line"/>
      <point x="128" y="849" type="line"/>
      <point x="124" y="855"/>
      <point x="108" y="863"/>
      <point x="100" y="863" type="curve" smooth="yes"/>
      <point x="67" y="863" type="line" smooth="yes"/>
      <point x="34" y="863"/>
      <point x="18" y="830"/>
      <point x="39" y="805" type="curve" smooth="yes"/>
      <point x="100" y="731" type="line"/>
      <point x="104" y="725"/>
      <point x="120" y="717"/>
      <point x="127" y="717" type="curve" smooth="yes"/>
      <point x="163" y="717" type="line" smooth="yes"/>
      <point x="170" y="717"/>
      <point x="186" y="725"/>
      <point x="191" y="731" type="curve" smooth="yes"/>
      <point x="252" y="805" type="line" smooth="yes"/>
      <point x="272" y="830"/>
      <point x="256" y="863"/>
      <point x="224" y="863" type="curve" smooth="yes"/>
      <point x="190" y="863" type="line" smooth="yes"/>
      <point x="183" y="863"/>
      <point x="167" y="855"/>
      <point x="162" y="849" type="curve"/>
    </contour>
  </outline>
</glyph>
<glyph name="dcroat" format="1">
  <advance width="418"/>
  <unicode hex="0111"/>
  <outline>
    <contour>
      <point x="193" y="0" type="line" smooth="yes"/>
      <point x="308" y="0"/>
      <point x="362" y="66"/>
      <point x="362" y="191" type="curve" smooth="yes"/>
      <point x="362" y="459" type="line" smooth="yes"/>
      <point x="362" y="584"/>
      <point x="308" y="650"/>
      <point x="193" y="650" type="curve" smooth="yes"/>
      <point x="94" y="650" type="line" smooth="yes"/>
      <point x="75" y="650"/>
      <point x="59" y="634"/>
      <point x="59" y="616" type="curve" smooth="yes"/>
      <point x="59" y="372" type="line"/>
      <point x="26" y="372" type="line" smooth="yes"/>
      <point x="7" y="372"/>
      <point x="-9" y="357"/>
      <point x="-9" y="338" type="curve" smooth="yes"/>
      <point x="-9" y="311" type="line" smooth="yes"/>
      <point x="-9" y="292"/>
      <point x="7" y="277"/>
      <point x="26" y="277" type="curve" smooth="yes"/>
      <point x="59" y="277" type="line"/>
      <point x="59" y="34" type="line" smooth="yes"/>
      <point x="59" y="16"/>
      <point x="75" y="0"/>
      <point x="94" y="0" type="curve" smooth="yes"/>
    </contour>
    <contour>
      <point x="193" y="554" type="line" smooth="yes"/>
      <point x="244" y="554"/>
      <point x="265" y="524"/>
      <point x="265" y="459" type="curve" smooth="yes"/>
      <point x="265" y="191" type="line" smooth="yes"/>
      <point x="265" y="126"/>
      <point x="244" y="96"/>
      <point x="193" y="96" type="curve" smooth="yes"/>
      <point x="155" y="96" type="line"/>
      <point x="155" y="277" type="line"/>
      <point x="201" y="277" type="line" smooth="yes"/>
      <point x="220" y="277"/>
      <point x="236" y="292"/>
      <point x="236" y="311" type="curve" smooth="yes"/>
      <point x="236" y="338" type="line" smooth="yes"/>
      <point x="236" y="357"/>
      <point x="220" y="372"/>
      <point x="201" y="372" type="curve" smooth="yes"/>
      <point x="155" y="372" type="line"/>
      <point x="155" y="554" type="line"/>
    </contour>
  </outline>
</glyph>
<glyph name="Emacron" format="1">
  <advance width="353"/>
  <unicode hex="0112"/>
  <outline>
    <contour>
      <point x="36" y="674" type="line" smooth="yes"/>
      <point x="16" y="674"/>
      <point x="0" y="658"/>
      <point x="0" y="638" type="curve" smooth="yes"/>
      <point x="0" y="36" type="line" smooth="yes"/>
      <point x="0" y="16"/>
      <point x="16" y="0"/>
      <point x="36" y="0" type="curve" smooth="yes"/>
      <point x="252" y="0" type="line" smooth="yes"/>
      <point x="272" y="0"/>
      <point x="288" y="16"/>
      <point x="288" y="36" type="curve" smooth="yes"/>
      <point x="288" y="63" type="line" smooth="yes"/>
      <point x="288" y="83"/>
      <point x="272" y="99"/>
      <point x="252" y="99" type="curve" smooth="yes"/>
      <point x="99" y="99" type="line"/>
      <point x="99" y="288" type="line"/>
      <point x="225" y="288" type="line" smooth="yes"/>
      <point x="245" y="288"/>
      <point x="261" y="304"/>
      <point x="261" y="324" type="curve" smooth="yes"/>
      <point x="261" y="351" type="line" smooth="yes"/>
      <point x="261" y="371"/>
      <point x="245" y="387"/>
      <point x="225" y="387" type="curve" smooth="yes"/>
      <point x="99" y="387" type="line"/>
      <point x="99" y="575" type="line"/>
      <point x="252" y="575" type="line" smooth="yes"/>
      <point x="272" y="575"/>
      <point x="288" y="591"/>
      <point x="288" y="611" type="curve" smooth="yes"/>
      <point x="288" y="638" type="line" smooth="yes"/>
      <point x="288" y="658"/>
      <point x="272" y="674"/>
      <point x="252" y="674" type="curve" smooth="yes"/>
    </contour>
    <contour>
      <point x="259" y="781" type="line" smooth="yes"/>
      <point x="259" y="800"/>
      <point x="243" y="816"/>
      <point x="224" y="816" type="curve" smooth="yes"/>
      <point x="66" y="816" type="line" smooth="yes"/>
      <point x="47" y="816"/>
      <point x="31" y="800"/>
      <point x="31" y="781" type="curve" smooth="yes"/>
      <point x="31" y="753" type="line" smooth="yes"/>
      <point x="31" y="733"/>
      <point x="47" y="717"/>
      <point x="66" y="717" type="curve" smooth="yes"/>
      <point x="224" y="717" type="line" smooth="yes"/>
      <point x="243" y="717"/>
      <point x="259" y="733"/>
      <point x="259" y="753" type="curve" smooth="yes"/>
    </contour>
  </outline>
</glyph>
<glyph name="Ebreve" format="1">
  <advance width="353"/>
  <unicode hex="0114"/>
  <outline>
    <contour>
      <point x="36" y="674" type="line" smooth="yes"/>
      <point x="16" y="674"/>
      <point x="0" y="658"/>
      <point x="0" y="638" type="curve" smooth="yes"/>
      <point x="0" y="36" type="line" smooth="yes"/>
      <point x="0" y="16"/>
      <point x="16" y="0"/>
      <point x="36" y="0" type="curve" smooth="yes"/>
      <point x="252" y="0" type="line" smooth="yes"/>
      <point x="272" y="0"/>
      <point x="288" y="16"/>
      <point x="288" y="36" type="curve" smooth="yes"/>
      <point x="288" y="63" type="line" smooth="yes"/>
      <point x="288" y="83"/>
      <point x="272" y="99"/>
      <point x="252" y="99" type="curve" smooth="yes"/>
      <point x="99" y="99" type="line"/>
      <point x="99" y="288" type="line"/>
      <point x="225" y="288" type="line" smooth="yes"/>
      <point x="245" y="288"/>
      <point x="261" y="304"/>
      <point x="261" y="324" type="curve" smooth="yes"/>
      <point x="261" y="351" type="line" smooth="yes"/>
      <point x="261" y="371"/>
      <point x="245" y="387"/>
      <point x="225" y="387" type="curve" smooth="yes"/>
      <point x="99" y="387" type="line"/>
      <point x="99" y="575" type="line"/>
      <point x="252" y="575" type="line" smooth="yes"/>
      <point x="272" y="575"/>
      <point x="288" y="591"/>
      <point x="288" y="611" type="curve" smooth="yes"/>
      <point x="288" y="638" type="line" smooth="yes"/>
      <point x="288" y="658"/>
      <point x="272" y="674"/>
      <point x="252" y="674" type="curve" smooth="yes"/>
    </contour>
    <contour>
      <point x="136" y="816" type="line" smooth="yes"/>
      <point x="120" y="816"/>
      <point x="109" y="852"/>
      <point x="89" y="852" type="curve" smooth="yes"/>
      <point x="37" y="852"/>
      <point x="21" y="836"/>
      <point x="21" y="816" type="curve" smooth="yes"/>
      <point x="21" y="725"/>
      <point x="112" y="717"/>
      <point x="139" y="717" type="curve" smooth="yes"/>
      <point x="166" y="717"/>
      <point x="257" y="725"/>
      <point x="257" y="816" type="curve" smooth="yes"/>
      <point x="257" y="836"/>
      <point x="241" y="852"/>
      <point x="189" y="852" type="curve" smooth="yes"/>
      <point x="169" y="852"/>
      <point x="163" y="816"/>
      <point x="143" y="816" type="curve" smooth="yes"/>
    </contour>
  </outline>
</glyph>
<glyph name="Ecaron" format="1">
  <advance width="353"/>
  <unicode hex="011A"/>
  <outline>
    <contour>
      <point x="36" y="674" type="line" smooth="yes"/>
      <point x="16" y="674"/>
      <point x="0" y="658"/>
      <point x="0" y="638" type="curve" smooth="yes"/>
      <point x="0" y="36" type="line" smooth="yes"/>
      <point x="0" y="16"/>
      <point x="16" y="0"/>
      <point x="36" y="0" type="curve" smooth="yes"/>
      <point x="252" y="0" type="line" smooth="yes"/>
      <point x="272" y="0"/>
      <point x="288" y="16"/>
      <point x="288" y="36" type="curve" smooth="yes"/>
      <point x="288" y="63" type="line" smooth="yes"/>
      <point x="288" y="83"/>
      <point x="272" y="99"/>
      <point x="252" y="99" type="curve" smooth="yes"/>
      <point x="99" y="99" type="line"/>
      <point x="99" y="288" type="line"/>
      <point x="225" y="288" type="line" smooth="yes"/>
      <point x="245" y="288"/>
      <point x="261" y="304"/>
      <point x="261" y="324" type="curve" smooth="yes"/>
      <point x="261" y="351" type="line" smooth="yes"/>
      <point x="261" y="371"/>
      <point x="245" y="387"/>
      <point x="225" y="387" type="curve" smooth="yes"/>
      <point x="99" y="387" type="line"/>
      <point x="99" y="575" type="line"/>
      <point x="252" y="575" type="line" smooth="yes"/>
      <point x="272" y="575"/>
      <point x="288" y="591"/>
      <point x="288" y="611" type="curve" smooth="yes"/>
      <point x="288" y="638" type="line" smooth="yes"/>
      <point x="288" y="658"/>
      <point x="272" y="674"/>
      <point x="252" y="674" type="curve" smooth="yes"/>
    </contour>
    <contour>
      <point x="149" y="819" type="line"/>
      <point x="132" y="849" type="line"/>
      <point x="128" y="855"/>
      <point x="112" y="863"/>
      <point x="104" y="863" type="curve" smooth="yes"/>
      <point x="71" y="863" type="line" smooth="yes"/>
      <point x="38" y="863"/>
      <point x="22" y="830"/>
      <point x="43" y="805" type="curve" smooth="yes"/>
      <point x="104" y="731" type="line"/>
      <point x="108" y="725"/>
      <point x="124" y="717"/>
      <point x="131" y="717" type="curve" smooth="yes"/>
      <point x="167" y="717" type="line" smooth="yes"/>
      <point x="174" y="717"/>
      <point x="190" y="725"/>
      <point x="195" y="731" type="curve" smooth="yes"/>
      <point x="256" y="805" type="line" smooth="yes"/>
      <point x="276" y="830"/>
      <point x="260" y="863"/>
      <point x="228" y="863" type="curve" smooth="yes"/>
      <point x="194" y="863" type="line" smooth="yes"/>
      <point x="187" y="863"/>
      <point x="171" y="855"/>
      <point x="166" y="849" type="curve"/>
    </contour>
  </outline>
</glyph>
<glyph name="gcircumflex" format="1">
  <advance width="402"/>
  <unicode hex="011D"/>
  <outline>
    <contour>
      <point x="195" y="338" type="line" smooth="yes"/>
      <point x="136" y="338"/>
      <point x="139" y="238"/>
      <point x="195" y="238" type="curve" smooth="yes"/>
      <point x="230" y="238" type="line"/>
      <point x="230" y="195" type="line" smooth="yes"/>
      <point x="230" y="130"/>
      <point x="209" y="99"/>
      <point x="166" y="99" type="curve" smooth="yes"/>
      <point x="122" y="99"/>
      <point x="101" y="130"/>
      <point x="101" y="195" type="curve" smooth="yes"/>
      <point x="101" y="221"/>
      <point x="101" y="321"/>
      <point x="101" y="480" type="curve" smooth="yes"/>
      <point x="101" y="526"/>
      <point x="110" y="550"/>
      <point x="124" y="562" type="curve"/>
      <point x="135" y="573"/>
      <point x="152" y="575"/>
      <point x="166" y="575" type="curve" smooth="yes"/>
      <point x="180" y="575"/>
      <point x="196" y="573"/>
      <point x="208" y="562" type="curve" smooth="yes"/>
      <point x="220" y="551"/>
      <point x="230" y="527"/>
      <point x="230" y="480" type="curve" smooth="yes"/>
      <point x="230" y="466" type="line" smooth="yes"/>
      <point x="230" y="446"/>
      <point x="246" y="430"/>
      <point x="266" y="430" type="curve" smooth="yes"/>
      <point x="295" y="430" type="line" smooth="yes"/>
      <point x="314" y="430"/>
      <point x="330" y="446"/>
      <point x="330" y="466" type="curve" smooth="yes"/>
      <point x="330" y="480" type="line" smooth="yes"/>
      <point x="330" y="607"/>
      <point x="276" y="674"/>
      <point x="166" y="674" type="curve" smooth="yes"/>
      <point x="56" y="674"/>
      <point x="1" y="607"/>
      <point x="1" y="480" type="curve" smooth="yes"/>
      <point x="1" y="195" type="line" smooth="yes"/>
      <point x="1" y="69"/>
      <point x="56" y="0"/>
      <point x="166" y="0" type="curve" smooth="yes"/>
      <point x="276" y="0"/>
      <point x="330" y="68"/>
      <point x="330" y="195" type="curve" smooth="yes"/>
      <point x="330" y="302" type="line" smooth="yes"/>
      <point x="330" y="322"/>
      <point x="314" y="338"/>
      <point x="295" y="338" type="curve" smooth="yes"/>
    </contour>
    <contour>
      <point x="54" y="775" type="line" smooth="yes"/>
      <point x="33" y="750"/>
      <point x="49" y="717"/>
      <point x="82" y="717" type="curve" smooth="yes"/>
      <point x="115" y="717" type="line" smooth="yes"/>
      <point x="123" y="717"/>
      <point x="139" y="724"/>
      <point x="143" y="730" type="curve"/>
      <point x="160" y="759" type="line"/>
      <point x="177" y="730" type="line"/>
      <point x="182" y="724"/>
      <point x="198" y="717"/>
      <point x="205" y="717" type="curve" smooth="yes"/>
      <point x="239" y="717" type="line" smooth="yes"/>
      <point x="271" y="717"/>
      <point x="287" y="750"/>
      <point x="267" y="775" type="curve" smooth="yes"/>
      <point x="206" y="849" type="line" smooth="yes"/>
      <point x="201" y="855"/>
      <point x="185" y="863"/>
      <point x="178" y="863" type="curve" smooth="yes"/>
      <point x="142" y="863" type="line" smooth="yes"/>
      <point x="135" y="863"/>
      <point x="119" y="855"/>
      <point x="115" y="849" type="curve"/>
    </contour>
  </outline>
</glyph>
<glyph name="Hcircumflex" format="1">
  <advance width="394"/>
  <unicode hex="0124"/>
  <outline>
    <contour>
      <point x="101" y="386" type="line"/>
      <point x="101" y="638" type="line" smooth="yes"/>
      <point x="101" y="658"/>
      <point x="85" y="674"/>
      <point x="65" y="674" type="curve" smooth="yes"/>
      <point x="37" y="674" type="line" smooth="yes"/>
      <point x="17" y="674"/>
      <point x="1" y="658"/>
      <point x="1" y="638" type="curve" smooth="yes"/>
      <point x="1" y="36" type="line" smooth="yes"/>
      <point x="1" y="16"/>
      <point x="17" y="0"/>
      <point x="37" y="0" type="curve" smooth="yes"/>
      <point x="65" y="0" type="line" smooth="yes"/>
      <point x="85" y="0"/>
      <point x="101" y="16"/>
      <point x="101" y="36" type="curve" smooth="yes"/>
      <point x="101" y="287" type="line"/>
      <point x="212" y="287" type="line"/>
      <point x="212" y="36" type="line" smooth="yes"/>
      <point x="212" y="16"/>
      <point x="228" y="0"/>
      <point x="248" y="0" type="curve" smooth="yes"/>
      <point x="276" y="0" type="line" smooth="yes"/>
      <point x="296" y="0"/>
      <point x="312" y="16"/>
      <point x="312" y="36" type="curve" smooth="yes"/>
      <point x="312" y="638" type="line" smooth="yes"/>
      <point x="312" y="658"/>
      <point x="296" y="674"/>
      <point x="276" y="674" type="curve" smooth="yes"/>
      <point x="248" y="674" type="line" smooth="yes"/>
      <point x="228" y="674"/>
      <point x="212" y="658"/>
      <point x="212" y="638" type="curve" smooth="yes"/>
      <point x="212" y="386" type="line"/>
    </contour>
    <contour>
      <point x="49" y="775" type="line" smooth="yes"/>
      <point x="28" y="750"/>
      <point x="44" y="717"/>
      <point x="77" y="717" type="curve" smooth="yes"/>
      <point x="110" y="717" type="line" smooth="yes"/>
      <point x="118" y="717"/>
      <point x="134" y="724"/>
      <point x="138" y="730" type="curve"/>
      <point x="155" y="759" type="line"/>
      <point x="172" y="730" type="line"/>
      <point x="177" y="724"/>
      <point x="193" y="717"/>
      <point x="200" y="717" type="curve" smooth="yes"/>
      <point x="234" y="717" type="line" smooth="yes"/>
      <point x="266" y="717"/>
      <point x="282" y="750"/>
      <point x="262" y="775" type="curve" smooth="yes"/>
      <point x="201" y="849" type="line" smooth="yes"/>
      <point x="196" y="855"/>
      <point x="180" y="863"/>
      <point x="173" y="863" type="curve" smooth="yes"/>
      <point x="137" y="863" type="line" smooth="yes"/>
      <point x="130" y="863"/>
      <point x="114" y="855"/>
      <point x="110" y="849" type="curve"/>
    </contour>
  </outline>
</glyph>
<glyph name="imacron" format="1">
  <advance width="159"/>
  <unicode hex="012B"/>
  <outline>
    <contour>
      <point x="97" y="638" type="line" smooth="yes"/>
      <point x="97" y="658"/>
      <point x="80" y="674"/>
      <point x="61" y="674" type="curve" smooth="yes"/>
      <point x="33" y="674" type="line" smooth="yes"/>
      <point x="13" y="674"/>
      <point x="-3" y="658"/>
      <point x="-3" y="638" type="curve" smooth="yes"/>
      <point x="-3" y="36" type="line" smooth="yes"/>
      <point x="-3" y="16"/>
      <point x="13" y="0"/>
      <point x="33" y="0" type="curve" smooth="yes"/>
      <point x="61" y="0" type="line" smooth="yes"/>
      <point x="80" y="0"/>
      <point x="97" y="16"/>
      <point x="97" y="36" type="curve" smooth="yes"/>
    </contour>
    <contour>
      <point x="157" y="781" type="line" smooth="yes"/>
      <point x="157" y="800"/>
      <point x="141" y="816"/>
      <point x="122" y="816" type="curve" smooth="yes"/>
      <point x="-36" y="816" type="line" smooth="yes"/>
      <point x="-55" y="816"/>
      <point x="-71" y="800"/>
      <point x="-71" y="781" type="curve" smooth="yes"/>
      <point x="-71" y="753" type="line" smooth="yes"/>
      <point x="-71" y="733"/>
      <point x="-55" y="717"/>
      <point x="-36" y="717" type="curve" smooth="yes"/>
      <point x="122" y="717" type="line" smooth="yes"/>
      <point x="141" y="717"/>
      <point x="157" y="733"/>
      <point x="157" y="753" type="curve" smooth="yes"/>
    </contour>
  </outline>
</glyph>
<glyph name="ibreve" format="1">
  <advance width="159"/>
  <unicode hex="012D"/>
  <outline>
    <contour>
      <point x="97" y="638" type="line" smooth="yes"/>
      <point x="97" y="658"/>
      <point x="80" y="674"/>
      <point x="61" y="674" type="curve" smooth="yes"/>
      <point x="33" y="674" type="line" smooth="yes"/>
      <point x="13" y="674"/>
      <point x="-3" y="658"/>
      <point x="-3" y="638" type="curve" smooth="yes"/>
      <point x="-3" y="36" type="line" smooth="yes"/>
      <point x="-3" y="16"/>
      <point x="13" y="0"/>
      <point x="33" y="0" type="curve" smooth="yes"/>
      <point x="61" y="0" type="line" smooth="yes"/>
      <point x="80" y="0"/>
      <point x="97" y="16"/>
      <point x="97" y="36" type="curve" smooth="yes"/>
    </contour>
    <contour>
      <point x="40" y="816" type="line" smooth="yes"/>
      <point x="24" y="816"/>
      <point x="13" y="852"/>
      <point x="-7" y="852" type="curve" smooth="yes"/>
      <point x="-59" y="852"/>
      <point x="-75" y="836"/>
      <point x="-75" y="816" type="curve" smooth="yes"/>
      <point x="-75" y="725"/>
      <point x="16" y="717"/>
      <point x="43" y="717" type="curve" smooth="yes"/>
      <point x="70" y="717"/>
      <point x="161" y="725"/>
      <point x="161" y="816" type="curve" smooth="yes"/>
      <point x="161" y="836"/>
      <point x="145" y="852"/>
      <point x="93" y="852" type="curve" smooth="yes"/>
      <point x="73" y="852"/>
      <point x="67" y="816"/>
      <point x="47" y="816" type="curve" smooth="yes"/>
    </contour>
  </outline>
</glyph>
<glyph name="dotlessi" format="1">
  <advance width="159"/>
  <unicode hex="0131"/>
  <outline>
    <contour>
      <point x="104" y="616" type="line" smooth="yes"/>
      <point x="104" y="634"/>
      <point x="88" y="650"/>
      <point x="69" y="650" type="curve" smooth="yes"/>
      <point x="42" y="650" type="line" smooth="yes"/>
      <point x="23" y="650"/>
      <point x="8" y="634"/>
      <point x="8" y="616" type="curve" smooth="yes"/>
      <point x="8" y="34" type="line" smooth="yes"/>
      <point x="8" y="16"/>
      <point x="23" y="0"/>
      <point x="42" y="0" type="curve" smooth="yes"/>
      <point x="69" y="0" type="line" smooth="yes"/>
      <point x="88" y="0"/>
      <point x="104" y="16"/>
      <point x="104" y="34" type="curve" smooth="yes"/>
    </contour>
  </outline>
</glyph>
<glyph name="Kcommaaccent" format="1">
  <advance width="388"/>
  <unicode hex="0136"/>
  <outline>
    <contour>
      <point x="100" y="422" type="line"/>
      <point x="100" y="638" type="line" smooth="yes"/>
      <point x="100" y="658"/>
      <point x="84" y="674"/>
      <point x="64" y="674" type="curve" smooth="yes"/>
      <point x="36" y="674" type="line" smooth="yes"/>
      <point x="16" y="674"/>
      <point x="0" y="658"/>
      <point x="0" y="638" type="curve" smooth="yes"/>
      <point x="0" y="36" type="line" smooth="yes"/>
      <point x="0" y="16"/>
      <point x="16" y="0"/>
      <point x="36" y="0" type="curve" smooth="yes"/>
      <point x="64" y="0" type="line" smooth="yes"/>
      <point x="84" y="0"/>
      <point x="100" y="16"/>
      <point x="100" y="36" type="curve" smooth="yes"/>
      <point x="100" y="234" type="line"/>
      <point x="112" y="252" type="line"/>
      <point x="246" y="18" type="line" smooth="yes"/>
      <point x="251" y="9"/>
      <point x="267" y="0"/>
      <point x="277" y="0" type="curve" smooth="yes"/>
      <point x="309" y="0" type="line" smooth="yes"/>
      <point x="339" y="0"/>
      <point x="355" y="28"/>
      <point x="341" y="54" type="curve" smooth="yes"/>
      <point x="173" y="350" type="line"/>
      <point x="340" y="619" type="line" smooth="yes"/>
      <point x="356" y="645"/>
      <point x="340" y="674"/>
      <point x="309" y="674" type="curve" smooth="yes"/>
      <point x="275" y="674" type="line" smooth="yes"/>
      <point x="265" y="674"/>
      <point x="250" y="665"/>
      <point x="245" y="657" type="curve" smooth="yes"/>
    </contour>
    <contour>
      <point x="216" y="-76" type="line" smooth="yes"/>
      <point x="216" y="-57"/>
      <point x="199" y="-41"/>
      <point x="180" y="-41" type="curve" smooth="yes"/>
      <point x="152" y="-41" type="line" smooth="yes"/>
      <point x="132" y="-41"/>
      <point x="116" y="-57"/>
      <point x="116" y="-76" type="curve" smooth="yes"/>
      <point x="116" y="-150" type="line" smooth="yes"/>
      <point x="116" y="-170"/>
      <point x="132" y="-186"/>
      <point x="152" y="-186" type="curve" smooth="yes"/>
      <point x="180" y="-186" type="line" smooth="yes"/>
      <point x="199" y="-186"/>
      <point x="216" y="-170"/>
      <point x="216" y="-150" type="curve" smooth="yes"/>
    </contour>
  </outline>
</glyph>
<glyph name="Lslash" format="1">
  <advance width="414"/>
  <unicode hex="0141"/>
  <outline>
    <contour>
      <point x="243" y="466" type="line"/>
      <point x="228" y="480"/>
      <point x="206" y="480"/>
      <point x="192" y="466" type="curve" smooth="yes"/>
      <point x="-59" y="215" type="line" smooth="yes"/>
      <point x="-73" y="201"/>
      <point x="-73" y="180"/>
      <point x="-59" y="165" type="curve"/>
      <point x="-39" y="146" type="line"/>
      <point x="-25" y="131"/>
      <point x="-3" y="131"/>
      <point x="11" y="146" type="curve" smooth="yes"/>
      <point x="260" y="396" type="line"/>
      <point x="275" y="410"/>
      <point x="275" y="432"/>
      <point x="260" y="446" type="curve"/>
    </contour>
    <contour>
      <point x="332" y="63" type="line" smooth="yes"/>
      <point x="332" y="83"/>
      <point x="316" y="99"/>
      <point x="296" y="99" type="curve" smooth="yes"/>
      <point x="148" y="99" type="line"/>
      <point x="148" y="638" type="line" smooth="yes"/>
      <point x="148" y="658"/>
      <point x="132" y="674"/>
      <point x="112" y="674" type="curve" smooth="yes"/>
      <point x="83" y="674" type="line" smooth="yes"/>
      <point x="64" y="674"/>
      <point x="48" y="658"/>
      <point x="48" y="638" type="curve" smooth="yes"/>
      <point x="48" y="36" type="line" smooth="yes"/>
      <point x="48" y="16"/>
      <point x="64" y="0"/>
      <point x="83" y="0" type="curve" smooth="yes"/>
      <point x="296" y="0" type="line" smooth="yes"/>
      <point x="316" y="0"/>
      <point x="332" y="16"/>
      <point x="332" y="36" type="curve" smooth="yes"/>
    </contour>
  </outline>
</glyph>
<glyph name="Nacute" format="1">
  <advance width="410"/>
  <unicode hex="0143"/>
  <outline>
    <contour>
      <point x="296" y="0" type="line" smooth="yes"/>
      <point x="316" y="0"/>
      <point x="332" y="16"/>
      <point x="332" y="36" type="curve" smooth="yes"/>
      <point x="332" y="638" type="line" smooth="yes"/>
      <point x="332" y="658"/>
      <point x="316" y="674"/>
      <point x="296" y="674" type="curve" smooth="yes"/>
      <point x="268" y="674" type="line" smooth="yes"/>
      <point x="248" y="674"/>
      <point x="232" y="658"/>
      <point x="232" y="638" type="curve" smooth="yes"/>
      <point x="232" y="308" type="line"/>
      <point x="93" y="652" type="line"/>
      <point x="89" y="663"/>
      <point x="73" y="674"/>
      <point x="60" y="674" type="curve" smooth="yes"/>
      <point x="36" y="674" type="line" smooth="yes"/>
      <point x="17" y="674"/>
      <point x="0" y="658"/>
      <point x="0" y="638" type="curve" smooth="yes"/>
      <point x="0" y="36" type="line" smooth="yes"/>
      <point x="0" y="16"/>
      <point x="17" y="0"/>
      <point x="36" y="0" type="curve" smooth="yes"/>
      <point x="65" y="0" type="line" smooth="yes"/>
      <point x="84" y="0"/>
      <point x="101" y="16"/>
      <point x="101" y="36" type="curve" smooth="yes"/>
      <point x="101" y="366" type="line"/>
      <point x="240" y="22" type="line"/>
      <point x="244" y="11"/>
      <point x="261" y="0"/>
      <point x="273" y="0" type="curve" smooth="yes"/>
    </contour>
    <contour>
      <point x="147" y="717"/>
      <point x="257" y="798"/>
      <point x="257" y="798" type="curve"/>
      <point x="286" y="818"/>
      <point x="272" y="863"/>
      <point x="236" y="863" type="curve" smooth="yes"/>
      <point x="166" y="863"/>
      <point x="66" y="782"/>
      <point x="66" y="782" type="curve"/>
      <point x="37" y="762"/>
      <point x="50" y="717"/>
      <point x="86" y="717" type="curve" smooth="yes"/>
    </contour>
  </outline>
</glyph>
<glyph name="ncommaaccent" format="1">
  <advance width="410"/>
  <unicode hex="0146"/>
  <outline>
    <contour>
      <point x="296" y="0" type="line" smooth="yes"/>
      <point x="316" y="0"/>
      <point x="332" y="16"/>
      <point x="332" y="36" type="curve" smooth="yes"/>
      <point x="332" y="638" type="line" smooth="yes"/>
      <point x="332" y="658"/>
      <point x="316" y="674"/>
      <point x="296" y="674" type="curve" smooth="yes"/>
      <point x="268" y="674" type="line" smooth="yes"/>
      <point x="248" y="674"/>
      <point x="232" y="658"/>
      <point x="232" y="638" type="curve" smooth="yes"/>
      <point x="232" y="308" type="line"/>
      <point x="93" y="652" type="line"/>
      <point x="89" y="663"/>
      <point x="73" y="674"/>
      <point x="60" y="674" type="curve" smooth="yes"/>
      <point x="36" y="674" type="line" smooth="yes"/>
      <point x="17" y="674"/>
      <point x="0" y="658"/>
      <point x="0" y="638" type="curve" smooth="yes"/>
      <point x="0" y="36" type="line" smooth="yes"/>
      <point x="0" y="16"/>
      <point x="17" y="0"/>
      <point x="36" y="0" type="curve" smooth="yes"/>
      <point x="65" y="0" type="line" smooth="yes"/>
      <point x="84" y="0"/>
      <point x="101" y="16"/>
      <point x="101" y="36" type="curve" smooth="yes"/>
      <point x="101" y="366" type="line"/>
      <point x="240" y="22" type="line"/>
      <point x="244" y="11"/>
      <point x="261" y="0"/>
      <point x="273" y="0" type="curve" smooth="yes"/>
    </contour>
    <contour>
      <point x="231" y="-76" type="line" smooth="yes"/>
      <point x="231" y="-57"/>
      <point x="214" y="-41"/>
      <point x="195" y="-41" type="curve" smooth="yes"/>
      <point x="167" y="-41" type="line" smooth="yes"/>
      <point x="147" y="-41"/>
      <point x="131" y="-57"/>
      <point x="131" y="-76" type="curve" smooth="yes"/>
      <point x="131" y="-150" type="line" smooth="yes"/>
      <point x="131" y="-170"/>
      <point x="147" y="-186"/>
      <point x="167" y="-186" type="curve" smooth="yes"/>
      <point x="195" y="-186" type="line" smooth="yes"/>
      <point x="214" y="-186"/>
      <point x="231" y="-170"/>
      <point x="231" y="-150" type="curve" smooth="yes"/>
    </contour>
  </outline>
</glyph>
<glyph name="Obreve" format="1">
  <advance width="406"/>
  <unicode hex="014E"/>
  <outline>
    <contour>
      <point x="1" y="196" type="line" smooth="yes"/>
      <point x="1" y="117"/>
      <point x="23" y="71"/>
      <point x="54" y="40" type="curve" smooth="yes"/>
      <point x="87" y="8"/>
      <point x="129" y="0"/>
      <point x="165" y="0" type="curve" smooth="yes"/>
      <point x="202" y="0"/>
      <point x="244" y="8"/>
      <point x="277" y="40" type="curve" smooth="yes"/>
      <point x="308" y="71"/>
      <point x="329" y="117"/>
      <point x="329" y="196" type="curve" smooth="yes"/>
      <point x="329" y="479" type="line" smooth="yes"/>
      <point x="329" y="606"/>
      <point x="275" y="674"/>
      <point x="165" y="674" type="curve" smooth="yes"/>
      <point x="56" y="674"/>
      <point x="1" y="605"/>
      <point x="1" y="479" type="curve" smooth="yes"/>
    </contour>
    <contour>
      <point x="101" y="479" type="line" smooth="yes"/>
      <point x="101" y="544"/>
      <point x="121" y="575"/>
      <point x="165" y="575" type="curve" smooth="yes"/>
      <point x="208" y="575"/>
      <point x="229" y="546"/>
      <point x="229" y="479" type="curve" smooth="yes"/>
      <point x="229" y="196" type="line" smooth="yes"/>
      <point x="229" y="128"/>
      <point x="207" y="99"/>
      <point x="165" y="99" type="curve" smooth="yes"/>
      <point x="122" y="99"/>
      <point x="101" y="130"/>
      <point x="101" y="196" type="curve" smooth="yes"/>
    </contour>
    <contour>
      <point x="160" y="816" type="line" smooth="yes"/>
      <point x="144" y="816"/>
      <point x="133" y="852"/>
      <point x="113" y="852" type="curve" smooth="yes"/>
      <point x="61" y="852"/>
      <point x="45" y="836"/>
      <point x="45" y="816" type="curve" smooth="yes"/>
      <point x="45" y="725"/>
      <point x="136" y="717"/>
      <point x="163" y="717" type="curve" smooth="yes"/>
      <point x="190" y="717"/>
      <point x="281" y="725"/>
      <point x="281" y="816" type="curve" smooth="yes"/>
      <point x="281" y="836"/>
      <point x="265" y="852"/>
      <point x="213" y="852" type="curve" smooth="yes"/>
      <point x="193" y="852"/>
      <point x="187" y="816"/>
      <point x="167" y="816" type="curve" smooth="yes"/>
    </contour>
  </outline>
</glyph>
<glyph name="OE" format="1">
  <advance width="544"/>
  <unicode hex="0152"/>
  <outline>
    <contour>
      <point x="204" y="674" type="line" smooth="yes"/>
      <point x="101" y="674"/>
      <point x="5" y="585"/>
      <point x="5" y="461" type="curve" smooth="yes"/>
      <point x="5" y="231" type="line" smooth="yes"/>
      <point x="5" y="97"/>
      <point x="63" y="0"/>
      <point x="204" y="0" type="curve" smooth="yes"/>
      <point x="421" y="0" type="line" smooth="yes"/>
      <point x="440" y="0"/>
      <point x="456" y="16"/>
      <point x="456" y="36" type="curve" smooth="yes"/>
      <point x="456" y="63" type="line" smooth="yes"/>
      <point x="456" y="83"/>
      <point x="440" y="99"/>
      <point x="421" y="99" type="curve" smooth="yes"/>
      <point x="268" y="99" type="line"/>
      <point x="268" y="288" type="line"/>
      <point x="421" y="288" type="line" smooth="yes"/>
      <point x="440" y="288"/>
      <point x="456" y="304"/>
      <point x="456" y="324" type="curve" smooth="yes"/>
      <point x="456" y="351" type="line" smooth="yes"/>
      <point x="456" y="371"/>
      <point x="440" y="387"/>
      <point x="421" y="387" type="curve" smooth="yes"/>
      <point x="268" y="387" type="line"/>
      <point x="268" y="575" type="line"/>
      <point x="421" y="575" type="line" smooth="yes"/>
      <point x="440" y="575"/>
      <point x="456" y="591"/>
      <point x="456" y="611" type="curve" smooth="yes"/>
      <point x="456" y="638" type="line" smooth="yes"/>
      <point x="456" y="658"/>
      <point x="440" y="674"/>
      <point x="421" y="674" type="curve" smooth="yes"/>
    </contour>
    <contour>
      <point x="104" y="461" type="line" smooth="yes"/>
      <point x="104" y="513"/>
      <point x="133" y="552"/>
      <point x="169" y="567" type="curve"/>
      <point x="169" y="106" type="line"/>
      <point x="133" y="122"/>
      <point x="104" y="161"/>
      <point x="104" y="214" type="curve" smooth="yes"/>
    </contour>
  </outline>
</glyph>
<glyph name="oe" format="1">
  <advance width="544"/>
  <unicode hex="0153"/>
  <outline>
    <contour>
      <point x="202" y="650" type="line" smooth="yes"/>
      <point x="102" y="650"/>
      <point x="9" y="564"/>
      <point x="9" y="445" type="curve" smooth="yes"/>
      <point x="9" y="222" type="line" smooth="yes"/>
      <point x="9" y="93"/>
      <point x="65" y="0"/>
      <point x="202" y="0" type="curve" smooth="yes"/>
      <point x="410" y="0" type="line" smooth="yes"/>
      <point x="429" y="0"/>
      <point x="445" y="16"/>
      <point x="445" y="34" type="curve" smooth="yes"/>
      <point x="445" y="61" type="line" smooth="yes"/>
      <point x="445" y="80"/>
      <point x="429" y="96"/>
      <point x="410" y="96" type="curve" smooth="yes"/>
      <point x="263" y="96" type="line"/>
      <point x="263" y="278" type="line"/>
      <point x="410" y="278" type="line" smooth="yes"/>
      <point x="429" y="278"/>
      <point x="445" y="293"/>
      <point x="445" y="312" type="curve" smooth="yes"/>
      <point x="445" y="339" type="line" smooth="yes"/>
      <point x="445" y="358"/>
      <point x="429" y="373"/>
      <point x="410" y="373" type="curve" smooth="yes"/>
      <point x="263" y="373" type="line"/>
      <point x="263" y="554" type="line"/>
      <point x="410" y="554" type="line" smooth="yes"/>
      <point x="429" y="554"/>
      <point x="445" y="570"/>
      <point x="445" y="589" type="curve" smooth="yes"/>
      <point x="445" y="616" type="line" smooth="yes"/>
      <point x="445" y="634"/>
      <point x="429" y="650"/>
      <point x="410" y="650" type="curve" smooth="yes"/>
    </contour>
    <contour>
      <point x="105" y="445" type="line" smooth="yes"/>
      <point x="105" y="495"/>
      <point x="133" y="532"/>
      <point x="167" y="547" type="curve"/>
      <point x="167" y="103" type="line"/>
      <point x="133" y="117"/>
      <point x="105" y="155"/>
      <point x="105" y="206" type="curve" smooth="yes"/>
    </contour>
  </outline>
</glyph>
<glyph name="tcommaaccent" format="1">
  <advance width="401"/>
  <unicode hex="0163"/>
  <outline>
    <contour>
      <point x="-3" y="611" type="line" smooth="yes"/>
      <point x="-3" y="591"/>
      <point x="13" y="575"/>
      <point x="33" y="575" type="curve" smooth="yes"/>
      <point x="114" y="575" type="line"/>
      <point x="114" y="37" type="line" smooth="yes"/>
      <point x="114" y="17"/>
      <point x="130" y="1"/>
      <point x="150" y="1" type="curve" smooth="yes"/>
      <point x="177" y="1" type="line" smooth="yes"/>
      <point x="197" y="1"/>
      <point x="213" y="17"/>
      <point x="213" y="37" type="curve" smooth="yes"/>
      <point x="213" y="575" type="line"/>
      <point x="295" y="575" type="line" smooth="yes"/>
      <point x="315" y="575"/>
      <point x="331" y="591"/>
      <point x="331" y="611" type="curve" smooth="yes"/>
      <point x="331" y="639" type="line" smooth="yes"/>
      <point x="331" y="659"/>
      <point x="315" y="675"/>
      <point x="295" y="675" type="curve" smooth="yes"/>
      <point x="33" y="675" type="line" smooth="yes"/>
      <point x="13" y="675"/>
      <point x="-3" y="659"/>
      <point x="-3" y="639" type="curve" smooth="yes"/>
    </contour>
    <contour>
      <point x="217" y="-76" type="line" smooth="yes"/>
      <point x="217" y="-57"/>
      <point x="200" y="-41"/>
      <point x="181" y="-41" type="curve" smooth="yes"/>
      <point x="153" y="-41" type="line" smooth="yes"/>
      <point x="133" y="-41"/>
      <point x="117" y="-57"/>
      <point x="117" y="-76" type="curve" smooth="yes"/>
      <point x="117" y="-150" type="line" smooth="yes"/>
      <point x="117" y="-170"/>
      <point x="133" y="-186"/>
      <point x="153" y="-186" type="curve" smooth="yes"/>
      <point x="181" y="-186" type="line" smooth="yes"/>
      <point x="200" y="-186"/>
      <point x="217" y="-170"/>
      <point x="217" y="-150" type="curve" smooth="yes"/>
    </contour>
  </outline>
</glyph>
<glyph name="tcaron" format="1">
  <advance width="401"/>
  <unicode hex="0165"/>
  <outline>
    <contour>
      <point x="-3" y="611" type="line" smooth="yes"/>
      <point x="-3" y="591"/>
      <point x="13" y="575"/>
      <point x="33" y="575" type="curve" smooth="yes"/>
      <point x="114" y="575" type="line"/>
      <point x="114" y="37" type="line" smooth="yes"/>
      <point x="114" y="17"/>
      <point x="130" y="1"/>
      <point x="150" y="1" type="curve" smooth="yes"/>
      <point x="177" y="1" type="line" smooth="yes"/>
      <point x="197" y="1"/>
      <point x="213" y="17"/>
      <point x="213" y="37" type="curve" smooth="yes"/>
      <point x="213" y="575" type="line"/>
      <point x="295" y="575" type="line" smooth="yes"/>
      <point x="315" y="575"/>
      <point x="331" y="591"/>
      <point x="331" y="611" type="curve" smooth="yes"/>
      <point x="331" y="639" type="line" smooth="yes"/>
      <point x="331" y="659"/>
      <point x="315" y="675"/>
      <point x="295" y="675" type="curve" smooth="yes"/>
      <point x="33" y="675" type="line" smooth="yes"/>
      <point x="13" y="675"/>
      <point x="-3" y="659"/>
      <point x="-3" y="639" type="curve" smooth="yes"/>
    </contour>
    <contour>
      <point x="169" y="819" type="line"/>
      <point x="152" y="849" type="line"/>
      <point x="148" y="855"/>
      <point x="132" y="863"/>
      <point x="124" y="863" type="curve" smooth="yes"/>
      <point x="91" y="863" type="line" smooth="yes"/>
      <point x="58" y="863"/>
      <point x="42" y="830"/>
      <point x="63" y="805" type="curve" smooth="yes"/>
      <point x="124" y="731" type="line"/>
      <point x="128" y="725"/>
      <point x="144" y="717"/>
      <point x="151" y="717" type="curve" smooth="yes"/>
      <point x="187" y="717" type="line" smooth="yes"/>
      <point x="194" y="717"/>
      <point x="210" y="725"/>
      <point x="215" y="731" type="curve" smooth="yes"/>
      <point x="276" y="805" type="line" smooth="yes"/>
      <point x="296" y="830"/>
      <point x="280" y="863"/>
      <point x="248" y="863" type="curve" smooth="yes"/>
      <point x="214" y="863" type="line" smooth="yes"/>
      <point x="207" y="863"/>
      <point x="191" y="855"/>
      <point x="186" y="849" type="curve"/>
    </contour>
  </outline>
</glyph>
<glyph name="umacron" format="1">
  <advance width="409"/>
  <unicode hex="016B"/>
  <outline>
    <contour>
      <point x="-6" y="184" type="line" smooth="yes"/>
      <point x="-6" y="78"/>
      <point x="38" y="1"/>
      <point x="158" y="1" type="curve" smooth="yes"/>
      <point x="274" y="1"/>
      <point x="322" y="72"/>
      <point x="322" y="184" type="curve" smooth="yes"/>
      <point x="322" y="639" type="line" smooth="yes"/>
      <point x="322" y="659"/>
      <point x="306" y="675"/>
      <point x="286" y="675" type="curve" smooth="yes"/>
      <point x="258" y="675" type="line" smooth="yes"/>
      <point x="239" y="675"/>
      <point x="223" y="659"/>
      <point x="223" y="639" type="curve" smooth="yes"/>
      <point x="223" y="184" type="line" smooth="yes"/>
      <point x="223" y="136"/>
      <point x="209" y="100"/>
      <point x="158" y="100" type="curve" smooth="yes"/>
      <point x="109" y="100"/>
      <point x="93" y="131"/>
      <point x="93" y="184" type="curve" smooth="yes"/>
      <point x="93" y="639" type="line" smooth="yes"/>
      <point x="93" y="659"/>
      <point x="77" y="675"/>
      <point x="57" y="675" type="curve" smooth="yes"/>
      <point x="29" y="675" type="line" smooth="yes"/>
      <point x="10" y="675"/>
      <point x="-6" y="659"/>
      <point x="-6" y="639" type="curve" smooth="yes"/>
    </contour>
    <contour>
      <point x="276" y="781" type="line" smooth="yes"/>
      <point x="276" y="800"/>
      <point x="260" y="816"/>
      <point x="241" y="816" type="curve" smooth="yes"/>
      <point x="83" y="816" type="line" smooth="yes"/>
      <point x="64" y="816"/>
      <point x="48" y="800"/>
      <point x="48" y="781" type="curve" smooth="yes"/>
      <point x="48" y="753" type="line" smooth="yes"/>
      <point x="48" y="733"/>
      <point x="64" y="717"/>
      <point x="83" y="717" type="curve" smooth="yes"/>
      <point x="241" y="717" type="line" smooth="yes"/>
      <point x="260" y="717"/>
      <point x="276" y="733"/>
      <point x="276" y="753" type="curve" smooth="yes"/>
    </contour>
  </outline>
</glyph>
<glyph name="uring" format="1">
  <advance width="409"/>
  <unicode hex="016F"/>
  <outline>
    <contour>
      <point x="-6" y="639" type="line" smooth="yes"/>
      <point x="-6" y="659"/>
      <point x="10" y="675"/>
      <point x="29" y="675" type="curve" smooth="yes"/>
      <point x="57" y="675" type="line" smooth="yes"/>
      <point x="77" y="675"/>
      <point x="93" y="659"/>
      <point x="93" y="639" type="curve" smooth="yes"/>
      <point x="93" y="184" type="line" smooth="yes"/>
      <point x="93" y="131"/>
      <point x="109" y="100"/>
      <point x="158" y="100" type="curve" smooth="yes"/>
      <point x="209" y="100"/>
      <point x="223" y="136"/>
      <point x="223" y="184" type="curve" smooth="yes"/>
      <point x="223" y="639" type="line" smooth="yes"/>
      <point x="223" y="659"/>
      <point x="239" y="675"/>
      <point x="258" y="675" type="curve" smooth="yes"/>
      <point x="286" y="675" type="line" smooth="yes"/>
      <point x="306" y="675"/>
      <point x="322" y="659"/>
      <point x="322" y="639" type="curve" smooth="yes"/>
      <point x="322" y="184" type="line" smooth="yes"/>
      <point x="322" y="72"/>
      <point x="274" y="1"/>
      <point x="158" y="1" type="curve" smooth="yes"/>
      <point x="38" y="1"/>
      <point x="-6" y="78"/>
      <point x="-6" y="184" type="curve" smooth="yes"/>
    </contour>
    <contour>
      <point x="85" y="748"/>
      <point x="118" y="714"/>
      <point x="160" y="714" type="curve" smooth="yes"/>
      <point x="201" y="714"/>
      <point x="235" y="748"/>
      <point x="235" y="789" type="curve" smooth="yes"/>
      <point x="235" y="830"/>
      <point x="201" y="864"/>
      <point x="160" y="864" type="curve" smooth="yes"/>
      <point x="118" y="864"/>
      <point x="85" y="830"/>
      <point x="85" y="789" type="curve" smooth="yes"/>
    </contour>
    <contour>
      <point x="180" y="776"/>
      <point x="170" y="767"/>
      <point x="159" y="767" type="curve" smooth="yes"/>
      <point x="146" y="767"/>
      <point x="137" y="776"/>
      <point x="137" y="789" type="curve" smooth="yes"/>
      <point x="137" y="800"/>
      <point x="146" y="810"/>
      <point x="159" y="810" type="curve" smooth="yes"/>
      <point x="170" y="810"/>
      <point x="180" y="800"/>
      <point x="180" y="789" type="curve" smooth="yes"/>
    </contour>
  </outline>
</glyph>
<glyph name="wcircumflex" format="1">
  <advance width="560"/>
  <unicode hex="0175"/>
  <outline>
    <contour>
      <point x="287" y="645" type="line" smooth="yes"/>
      <point x="284" y="661"/>
      <point x="268" y="674"/>
      <point x="252" y="674" type="curve" smooth="yes"/>
      <point x="230" y="674" type="line" smooth="yes"/>
      <point x="214" y="674"/>
      <point x="198" y="661"/>
      <point x="195" y="645" type="curve" smooth="yes"/>
      <point x="143" y="341" type="line"/>
      <point x="97" y="644" type="line" smooth="yes"/>
      <point x="94" y="661"/>
      <point x="78" y="674"/>
      <point x="61" y="674" type="curve" smooth="yes"/>
      <point x="32" y="674" type="line" smooth="yes"/>
      <point x="9" y="674"/>
      <point x="-6" y="655"/>
      <point x="-3" y="633" type="curve" smooth="yes"/>
      <point x="95" y="30" type="line" smooth="yes"/>
      <point x="98" y="14"/>
      <point x="113" y="0"/>
      <point x="130" y="0" type="curve" smooth="yes"/>
      <point x="152" y="0" type="line" smooth="yes"/>
      <point x="168" y="0"/>
      <point x="184" y="13"/>
      <point x="187" y="29" type="curve" smooth="yes"/>
      <point x="241" y="348" type="line"/>
      <point x="294" y="29" type="line" smooth="yes"/>
      <point x="297" y="13"/>
      <point x="313" y="0"/>
      <point x="329" y="0" type="curve" smooth="yes"/>
      <point x="352" y="0" type="line" smooth="yes"/>
      <point x="369" y="0"/>
      <point x="385" y="14"/>
      <point x="388" y="30" type="curve" smooth="yes"/>
      <point x="484" y="633" type="line" smooth="yes"/>
      <point x="487" y="655"/>
      <point x="470" y="674"/>
      <point x="448" y="674" type="curve" smooth="yes"/>
      <point x="419" y="674" type="line" smooth="yes"/>
      <point x="402" y="674"/>
      <point x="385" y="661"/>
      <point x="383" y="644" type="curve" smooth="yes"/>
      <point x="338" y="343" type="line"/>
    </contour>
    <contour>
      <point x="143" y="775" type="line" smooth="yes"/>
      <point x="122" y="750"/>
      <point x="138" y="717"/>
      <point x="171" y="717" type="curve" smooth="yes"/>
      <point x="204" y="717" type="line" smooth="yes"/>
      <point x="212" y="717"/>
      <point x="228" y="724"/>
      <point x="232" y="730" type="curve"/>
      <point x="249" y="759" type="line"/>
      <point x="266" y="730" type="line"/>
      <point x="271" y="724"/>
      <point x="287" y="717"/>
      <point x="294" y="717" type="curve" smooth="yes"/>
      <point x="328" y="717" type="line" smooth="yes"/>
      <point x="360" y="717"/>
      <point x="376" y="750"/>
      <point x="356" y="775" type="curve" smooth="yes"/>
      <point x="295" y="849" type="line" smooth="yes"/>
      <point x="290" y="855"/>
      <point x="274" y="863"/>
      <point x="267" y="863" type="curve" smooth="yes"/>
      <point x="231" y="863" type="line" smooth="yes"/>
      <point x="224" y="863"/>
      <point x="208" y="855"/>
      <point x="204" y="849" type="curve"/>
    </contour>
  </outline>
</glyph>
<glyph name="zacute" format="1">
  <advance width="411"/>
  <unicode hex="017A"/>
  <outline>
    <contour>
      <point x="330" y="638" type="line" smooth="yes"/>
      <point x="330" y="658"/>
      <point x="314" y="674"/>
      <point x="294" y="674" type="curve" smooth="yes"/>
      <point x="28" y="674" type="line" smooth="yes"/>
      <point x="8" y="674"/>
      <point x="-8" y="658"/>
      <point x="-8" y="638" type="curve" smooth="yes"/>
      <point x="-8" y="611" type="line" smooth="yes"/>
      <point x="-8" y="591"/>
      <point x="8" y="575"/>
      <point x="28" y="575" type="curve" smooth="yes"/>
      <point x="208" y="575" type="line"/>
      <point x="-3" y="71" type="line"/>
      <point x="-3" y="36" type="line" smooth="yes"/>
      <point x="-3" y="16"/>
      <point x="13" y="0"/>
      <point x="32" y="0" type="curve" smooth="yes"/>
      <point x="290" y="0" type="line" smooth="yes"/>
      <point x="309" y="0"/>
      <point x="326" y="16"/>
      <point x="326" y="36" type="curve" smooth="yes"/>
      <point x="326" y="63" type="line" smooth="yes"/>
      <point x="326" y="83"/>
      <point x="309" y="99"/>
      <point x="290" y="99" type="curve" smooth="yes"/>
      <point x="118" y="99" type="line"/>
      <point x="330" y="604" type="line"/>
    </contour>
    <contour>
      <point x="153" y="717"/>
      <point x="263" y="798"/>
      <point x="263" y="798" type="curve"/>
      <point x="292" y="818"/>
      <point x="278" y="863"/>
      <point x="242" y="863" type="curve" smooth="yes"/>
      <point x="172" y="863"/>
      <point x="72" y="782"/>
      <point x="72" y="782" type="curve"/>
      <point x="43" y="762"/>
      <point x="56" y="717"/>
      <point x="92" y="717" type="curve" smooth="yes"/>
    </contour>
  </outline>
</glyph>
<glyph name="Zdotaccent" format="1">
  <advance width="411"/>
  <unicode hex="017B"/>
  <outline>
    <contour>
      <point x="330" y="638" type="line" smooth="yes"/>
      <point x="330" y="658"/>
      <point x="314" y="674"/>
      <point x="294" y="674" type="curve" smooth="yes"/>
      <point x="28" y="674" type="line" smooth="yes"/>
      <point x="8" y="674"/>
      <point x="-8" y="658"/>
      <point x="-8" y="638" type="curve" smooth="yes"/>
      <point x="-8" y="611" type="line" smooth="yes"/>
      <point x="-8" y="591"/>
      <point x="8" y="575"/>
      <point x="28" y="575" type="curve" smooth="yes"/>
      <point x="208" y="575" type="line"/>
      <point x="-3" y="71" type="line"/>
      <point x="-3" y="36" type="line" smooth="yes"/>
      <point x="-3" y="16"/>
      <point x="13" y="0"/>
      <point x="32" y="0" type="curve" smooth="yes"/>
      <point x="290" y="0" type="line" smooth="yes"/>
      <point x="309" y="0"/>
      <point x="326" y="16"/>
      <point x="326" y="36" type="curve" smooth="yes"/>
      <point x="326" y="63" type="line" smooth="yes"/>
      <point x="326" y="83"/>
      <point x="309" y="99"/>
      <point x="290" y="99" type="curve" smooth="yes"/>
      <point x="118" y="99" type="line"/>
      <point x="330" y="604" type="line"/>
    </contour>
    <contour>
      <point x="213" y="784" type="line" smooth="yes"/>
      <point x="213" y="804"/>
      <point x="197" y="820"/>
      <point x="177" y="820" type="curve" smooth="yes"/>
      <point x="149" y="820" type="line" smooth="yes"/>
      <point x="129" y="820"/>
      <point x="113" y="804"/>
      <point x="113" y="784" type="curve" smooth="yes"/>
      <point x="113" y="746" type="line" smooth="yes"/>
      <point x="113" y="726"/>
      <point x="129" y="710"/>
      <point x="149" y="710" type="curve" smooth="yes"/>
      <point x="177" y="710" type="line" smooth="yes"/>
      <point x="197" y="710"/>
      <point x="213" y="726"/>
      <point x="213" y="746" type="curve" smooth="yes"/>
    </contour>
  </outline>
</glyph>
<glyph name="Zcaron" format="1">
  <advance width="419"/>
  <unicode hex="017D"/>
  <outline>
    <contour>
      <point x="330" y="638" type="line" smooth="yes"/>
      <point x="330" y="658"/>
      <point x="314" y="674"/>
      <point x="294" y="674" type="curve" smooth="yes"/>
      <point x="28" y="674" type="line" smooth="yes"/>
      <point x="8" y="674"/>
      <point x="-8" y="658"/>
      <point x="-8" y="638" type="curve" smooth="yes"/>
      <point x="-8" y="611" type="line" smooth="yes"/>
      <point x="-8" y="591"/>
      <point x="8" y="575"/>
      <point x="28" y="575" type="curve" smooth="yes"/>
      <point x="208" y="575" type="line"/>
      <point x="-3" y="71" type="line"/>
      <point x="-3" y="36" type="line" smooth="yes"/>
      <point x="-3" y="16"/>
      <point x="13" y="0"/>
      <point x="32" y="0" type="curve" smooth="yes"/>
      <point x="290" y="0" type="line" smooth="yes"/>
      <point x="309" y="0"/>
      <point x="326" y="16"/>
      <point x="326" y="36" type="curve" smooth="yes"/>
      <point x="326" y="63" type="line" smooth="yes"/>
      <point x="326" y="83"/>
      <point x="309" y="99"/>
      <point x="290" y="99" type="curve" smooth="yes"/>
      <point x="118" y="99" type="line"/>
      <point x="330" y="604" type="line"/>
    </contour>
    <contour>
      <point x="159" y="819" type="line"/>
      <point x="142" y="849" type="line"/>
      <point x="138" y="855"/>
      <point x="122" y="863"/>
      <point x="114" y="863" type="curve" smooth="yes"/>
      <point x="81" y="863" type="line" smooth="yes"/>
      <point x="48" y="863"/>
      <point x="32" y="830"/>
      <point x="53" y="805" type="curve" smooth="yes"/>
      <point x="114" y="731" type="line"/>
      <point x="118" y="725"/>
      <point x="134" y="717"/>
      <point x="141" y="717" type="curve" smooth="yes"/>
      <point x="177" y="717" type="line" smooth="yes"/>
      <point x="184" y="717"/>
      <point x="200" y="725"/>
      <point x="205" y="731" type="curve" smooth="yes"/>
      <point x="266" y="805" type="line" smooth="yes"/>
      <point x="286" y="830"/>
      <point x="270" y="863"/>
      <point x="238" y="863" type="curve" smooth="yes"/>
      <point x="204" y="863" type="line" smooth="yes"/>
      <point x="197" y="863"/>
      <point x="181" y="855"/>
      <point x="176" y="849" type="curve"/>
    </contour>
  </outline>
</glyph>
<glyph name="AEacute" format="1">
  <advance width="665"/>
  <unicode hex="01FC"/>
  <outline>
    <contour>
      <point x="312" y="674" type="line" smooth="yes"/>
      <point x="300" y="674"/>
      <point x="284" y="663"/>
      <point x="280" y="653" type="curve"/>
      <point x="7" y="50" type="line" smooth="yes"/>
      <point x="-5" y="25"/>
      <point x="12" y="0"/>
      <point x="39" y="0" type="curve" smooth="yes"/>
      <point x="70" y="0" type="line" smooth="yes"/>
      <point x="81" y="0"/>
      <point x="97" y="11"/>
      <point x="102" y="21" type="curve" smooth="yes"/>
      <point x="127" y="75"/>
      <point x="152" y="130"/>
      <point x="178" y="184" type="curve"/>
      <point x="278" y="184" type="line"/>
      <point x="278" y="36" type="line" smooth="yes"/>
      <point x="278" y="16"/>
      <point x="294" y="0"/>
      <point x="314" y="0" type="curve" smooth="yes"/>
      <point x="530" y="0" type="line" smooth="yes"/>
      <point x="550" y="0"/>
      <point x="566" y="16"/>
      <point x="566" y="36" type="curve" smooth="yes"/>
      <point x="566" y="63" type="line" smooth="yes"/>
      <point x="566" y="83"/>
      <point x="550" y="99"/>
      <point x="530" y="99" type="curve" smooth="yes"/>
      <point x="377" y="99" type="line"/>
      <point x="377" y="288" type="line"/>
      <point x="530" y="288" type="line" smooth="yes"/>
      <point x="550" y="288"/>
      <point x="566" y="304"/>
      <point x="566" y="324" type="curve" smooth="yes"/>
      <point x="566" y="351" type="line" smooth="yes"/>
      <point x="566" y="371"/>
      <point x="550" y="387"/>
      <point x="530" y="387" type="curve" smooth="yes"/>
      <point x="377" y="387" type="line"/>
      <point x="377" y="575" type="line"/>
      <point x="530" y="575" type="line" smooth="yes"/>
      <point x="550" y="575"/>
      <point x="566" y="591"/>
      <point x="566" y="611" type="curve" smooth="yes"/>
      <point x="566" y="638" type="line" smooth="yes"/>
      <point x="566" y="658"/>
      <point x="550" y="674"/>
      <point x="530" y="674" type="curve" smooth="yes"/>
    </contour>
    <contour>
      <point x="223" y="283" type="line"/>
      <point x="278" y="406" type="line"/>
      <point x="278" y="283" type="line"/>
    </contour>
    <contour>
      <point x="329" y="717"/>
      <point x="439" y="798"/>
      <point x="439" y="798" type="curve"/>
      <point x="468" y="818"/>
      <point x="454" y="863"/>
      <point x="418" y="863" type="curve" smooth="yes"/>
      <point x="348" y="863"/>
      <point x="248" y="782"/>
      <point x="248" y="782" type="curve"/>
      <point x="219" y="762"/>
      <point x="232" y="717"/>
      <point x="268" y="717" type="curve" smooth="yes"/>
    </contour>
  </outline>
</glyph>
<glyph name="oslashacute" format="1">
  <advance width="406"/>
  <unicode hex="01FF"/>
  <outline>
    <contour>
      <point x="1" y="196" type="line" smooth="yes"/>
      <point x="1" y="117"/>
      <point x="23" y="71"/>
      <point x="54" y="40" type="curve" smooth="yes"/>
      <point x="87" y="8"/>
      <point x="129" y="0"/>
      <point x="165" y="0" type="curve" smooth="yes"/>
      <point x="202" y="0"/>
      <point x="244" y="8"/>
      <point x="277" y="40" type="curve" smooth="yes"/>
      <point x="308" y="71"/>
      <point x="329" y="117"/>
      <point x="329" y="196" type="curve" smooth="yes"/>
      <point x="329" y="479" type="line" smooth="yes"/>
      <point x="329" y="606"/>
      <point x="275" y="674"/>
      <point x="165" y="674" type="curve" smooth="yes"/>
      <point x="56" y="674"/>
      <point x="1" y="605"/>
      <point x="1" y="479" type="curve" smooth="yes"/>
    </contour>
    <contour>
      <point x="101" y="196" type="line" smooth="yes"/>
      <point x="101" y="130"/>
      <point x="122" y="99"/>
      <point x="165" y="99" type="curve" smooth="yes"/>
      <point x="207" y="99"/>
      <point x="229" y="128"/>
      <point x="229" y="196" type="curve" smooth="yes"/>
      <point x="229" y="479" type="line" smooth="yes"/>
      <point x="229" y="546"/>
      <point x="208" y="575"/>
      <point x="165" y="575" type="curve" smooth="yes"/>
      <point x="121" y="575"/>
      <point x="101" y="544"/>
      <point x="101" y="479" type="curve" smooth="yes"/>
    </contour>
    <contour>
      <point x="68" y="0" type="line" smooth="yes"/>
      <point x="81" y="0"/>
      <point x="97" y="11"/>
      <point x="101" y="22" type="curve" smooth="yes"/>
      <point x="343" y="625" type="line" smooth="yes"/>
      <point x="353" y="650"/>
      <point x="337" y="674"/>
      <point x="310" y="674" type="curve" smooth="yes"/>
      <point x="279" y="674" type="line" smooth="yes"/>
      <point x="267" y="674"/>
      <point x="251" y="663"/>
      <point x="246" y="652" type="curve"/>
      <point x="5" y="49" type="line" smooth="yes"/>
      <point x="-5" y="24"/>
      <point x="11" y="0"/>
      <point x="38" y="0" type="curve" smooth="yes"/>
    </contour>
  </outline>
</glyph>
<glyph name="circumflex" format="1">
  <advance width="237"/>
  <unicode hex="02C6"/>
  <outline>
    <contour>
      <point x="0" y="775" type="line" smooth="yes"/>
      <point x="-21" y="750"/>
      <point x="-5" y="717"/>
      <point x="28" y="717" type="curve" smooth="yes"/>
      <point x="61" y="717" type="line" smooth="yes"/>
      <point x="69" y="717"/>
      <point x="85" y="724"/>
      <point x="89" y="730" type="curve"/>
      <point x="106" y="759" type="line"/>
      <point x="123" y="730" type="line"/>
      <point x="128" y="724"/>
      <point x="144" y="717"/>
      <point x="151" y="717" type="curve" smooth="yes"/>
      <point x="185" y="717" type="line" smooth="yes"/>
      <point x="217" y="717"/>
      <point x="233" y="750"/>
      <point x="213" y="775" type="curve" smooth="yes"/>
      <point x="152" y="849" type="line" smooth="yes"/>
      <point x="147" y="855"/>
      <point x="131" y="863"/>
      <point x="124" y="863" type="curve" smooth="yes"/>
      <point x="88" y="863" type="line" smooth="yes"/>
      <point x="81" y="863"/>
      <point x="65" y="855"/>
      <point x="61" y="849" type="curve"/>
    </contour>
  </outline>
</glyph>
<glyph name="caron" format="1">
  <advance width="232"/>
  <unicode hex="02C7"/>
  <outline>
    <contour>
      <point x="106" y="819" type="line"/>
      <point x="89" y="849" type="line"/>
      <point x="85" y="855"/>
      <point x="69" y="863"/>
      <point x="61" y="863" type="curve" smooth="yes"/>
      <point x="28" y="863" type="line" smooth="yes"/>
      <point x="-5" y="863"/>
      <point x="-21" y="830"/>
      <point x="0" y="805" type="curve" smooth="yes"/>
      <point x="61" y="731" type="line"/>
      <point x="65" y="725"/>
      <point x="81" y="717"/>
      <point x="88" y="717" type="curve" smooth="yes"/>
      <point x="124" y="717" type="line" smooth="yes"/>
      <point x="131" y="717"/>
      <point x="147" y="725"/>
      <point x="152" y="731" type="curve" smooth="yes"/>
      <point x="213" y="805" type="line" smooth="yes"/>
      <point x="233" y="830"/>
      <point x="217" y="863"/>
      <point x="185" y="863" type="curve" smooth="yes"/>
      <point x="151" y="863" type="line" smooth="yes"/>
      <point x="144" y="863"/>
      <point x="128" y="855"/>
      <point x="123" y="849" type="curve"/>
    </contour>
  </outline>
</glyph>
<glyph name="breve" format="1">
  <advance width="241"/>
  <unicode hex="02D8"/>
  <outline>
    <contour>
      <point x="108" y="816" type="line" smooth="yes"/>
      <point x="92" y="816"/>
      <point x="81" y="852"/>
      <point x="61" y="852" type="curve" smooth="yes"/>
      <point x="9" y="852"/>
      <point x="-7" y="836"/>
      <point x="-7" y="816" type="curve" smooth="yes"/>
      <point x="-7" y="725"/>
      <point x="84" y="717"/>
      <point x="111" y="717" type="curve" smooth="yes"/>
      <point x="138" y="717"/>
      <point x="229" y="725"/>
      <point x="229" y="816" type="curve" smooth="yes"/>
      <point x="229" y="836"/>
      <point x="213" y="852"/>
      <point x="161" y="852" type="curve" smooth="yes"/>
      <point x="141" y="852"/>
      <point x="135" y="816"/>
      <point x="115" y="816" type="curve" smooth="yes"/>
    </contour>
  </outline>
</glyph>
<glyph name="ring" format="1">
  <advance width="140"/>
  <unicode hex="02DA"/>
  <outline>
    <contour>
      <point x="-12" y="748"/>
      <point x="21" y="714"/>
      <point x="63" y="714" type="curve" smooth="yes"/>
      <point x="104" y="714"/>
      <point x="138" y="748"/>
      <point x="138" y="789" type="curve" smooth="yes"/>
      <point x="138" y="830"/>
      <point x="104" y="864"/>
      <point x="63" y="864" type="curve" smooth="yes"/>
      <point x="21" y="864"/>
      <point x="-12" y="830"/>
      <point x="-12" y="789" type="curve" smooth="yes"/>
    </contour>
    <contour>
      <point x="83" y="776"/>
      <point x="73" y="767"/>
      <point x="62" y="767" type="curve" smooth="yes"/>
      <point x="49" y="767"/>
      <point x="40" y="776"/>
      <point x="40" y="789" type="curve" smooth="yes"/>
      <point x="40" y="800"/>
      <point x="49" y="810"/>
      <point x="62" y="810" type="curve" smooth="yes"/>
      <point x="73" y="810"/>
      <point x="83" y="800"/>
      <point x="83" y="789" type="curve" smooth="yes"/>
    </contour>
  </outline>
</glyph>
<glyph name="Wacute" format="1">
  <advance width="560"/>
  <unicode hex="1E82"/>
  <outline>
    <contour>
      <point x="287" y="645" type="line" smooth="yes"/>
      <point x="284" y="661"/>
      <point x="268" y="674"/>
      <point x="252" y="674" type="curve" smooth="yes"/>
      <point x="230" y="674" type="line" smooth="yes"/>
      <point x="214" y="674"/>
      <point x="198" y="661"/>
      <point x="195" y="645" type="curve" smooth="yes"/>
      <point x="143" y="341" type="line"/>
      <point x="97" y="644" type="line" smooth="yes"/>
      <point x="94" y="661"/>
      <point x="78" y="674"/>
      <point x="61" y="674" type="curve" smooth="yes"/>
      <point x="32" y="674" type="line" smooth="yes"/>
      <point x="9" y="674"/>
      <point x="-6" y="655"/>
      <point x="-3" y="633" type="curve" smooth="yes"/>
      <point x="95" y="30" type="line" smooth="yes"/>
      <point x="98" y="14"/>
      <point x="113" y="0"/>
      <point x="130" y="0" type="curve" smooth="yes"/>
      <point x="152" y="0" type="line" smooth="yes"/>
      <point x="168" y="0"/>
      <point x="184" y="13"/>
      <point x="187" y="29" type="curve" smooth="yes"/>
      <point x="241" y="348" type="line"/>
      <point x="294" y="29" type="line" smooth="yes"/>
      <point x="297" y="13"/>
      <point x="313" y="0"/>
      <point x="329" y="0" type="curve" smooth="yes"/>
      <point x="352" y="0" type="line" smooth="yes"/>
      <point x="369" y="0"/>
      <point x="385" y="14"/>
      <point x="388" y="30" type="curve" smooth="yes"/>
      <point x="484" y="633" type="line" smooth="yes"/>
      <point x="487" y="655"/>
      <point x="470" y="674"/>
      <point x="448" y="674" type="curve" smooth="yes"/>
      <point x="419" y="674" type="line" smooth="yes"/>
      <point x="402" y="674"/>
      <point x="385" y="661"/>
      <point x="383" y="644" type="curve" smooth="yes"/>
      <point x="338" y="343" type="line"/>
    </contour>
    <contour>
      <point x="234" y="717"/>
      <point x="344" y="798"/>
      <point x="344" y="798" type="curve"/>
      <point x="373" y="818"/>
      <point x="359" y="863"/>
      <point x="323" y="863" type="curve" smooth="yes"/>
      <point x="253" y="863"/>
      <point x="153" y="782"/>
      <point x="153" y="782" type="curve"/>
      <point x="124" y="762"/>
      <point x="137" y="717"/>
      <point x="173" y="717" type="curve" smooth="yes"/>
    </contour>
  </outline>
</glyph>
<glyph name="endash" format="1">
  <advance width="349"/>
  <unicode hex="2013"/>
  <outline>
    <contour>
      <point x="293" y="350" type="line" smooth="yes"/>
      <point x="293" y="370"/>
      <point x="277" y="386"/>
      <point x="257" y="386" type="curve" smooth="yes"/>
      <point x="39" y="386" type="line" smooth="yes"/>
      <point x="19" y="386"/>
      <point x="3" y="370"/>
      <point x="3" y="350" type="curve" smooth="yes"/>
      <point x="3" y="323" type="line" smooth="yes"/>
      <point x="3" y="303"/>
      <point x="19" y="287"/>
      <point x="39" y="287" type="curve" smooth="yes"/>
      <point x="257" y="287" type="line" smooth="yes"/>
      <point x="277" y="287"/>
      <point x="293" y="303"/>
      <point x="293" y="323" type="curve" smooth="yes"/>
    </contour>
  </outline>
</glyph>
<glyph name="quoteleft" format="1">
  <advance width="131"/>
  <unicode hex="2018"/>
  <outline>
    <contour>
      <point x="94" y="638" type="line" smooth="yes"/>
      <point x="94" y="658"/>
      <point x="78" y="674"/>
      <point x="58" y="674" type="curve" smooth="yes"/>
      <point x="30" y="674" type="line" smooth="yes"/>
      <point x="11" y="674"/>
      <point x="-5" y="658"/>
      <point x="-5" y="638" type="curve" smooth="yes"/>
      <point x="-5" y="560" type="line" smooth="yes"/>
      <point x="-5" y="540"/>
      <point x="11" y="524"/>
      <point x="30" y="524" type="curve" smooth="yes"/>
      <point x="58" y="524" type="line" smooth="yes"/>
      <point x="78" y="524"/>
      <point x="94" y="540"/>
      <point x="94" y="560" type="curve" smooth="yes"/>
    </contour>
  </outline>
</glyph>
<glyph name="Euro" format="1">
  <advance width="370"/>
  <unicode hex="20AC"/>
  <outline>
    <contour>
      <point x="261" y="252" type="line" smooth="yes"/>
      <point x="261" y="272"/>
      <point x="245" y="288"/>
      <point x="226" y="288" type="curve" smooth="yes"/>
      <point x="117" y="288" type="line"/>
      <point x="117" y="350" type="line"/>
      <point x="226" y="350" type="line" smooth="yes"/>
      <point x="245" y="350"/>
      <point x="261" y="366"/>
      <point x="261" y="385" type="curve" smooth="yes"/>
      <point x="261" y="413" type="line" smooth="yes"/>
      <point x="261" y="433"/>
      <point x="245" y="449"/>
      <point x="226" y="449" type="curve" smooth="yes"/>
      <point x="117" y="449" type="line"/>
      <point x="117" y="479" type="line" smooth="yes"/>
      <point x="117" y="527"/>
      <point x="135" y="575"/>
      <point x="190" y="575" type="curve" smooth="yes"/>
      <point x="235" y="575"/>
      <point x="242" y="560"/>
      <point x="242" y="560" type="curve"/>
      <point x="253" y="535"/>
      <point x="282" y="530"/>
      <point x="301" y="552" type="curve" smooth="yes"/>
      <point x="320" y="573" type="line"/>
      <point x="328" y="583"/>
      <point x="330" y="602"/>
      <point x="323" y="614" type="curve"/>
      <point x="323" y="614"/>
      <point x="287" y="674"/>
      <point x="190" y="674" type="curve" smooth="yes"/>
      <point x="116" y="674"/>
      <point x="16" y="640"/>
      <point x="16" y="479" type="curve" smooth="yes"/>
      <point x="16" y="449" type="line"/>
      <point x="-1" y="449" type="line" smooth="yes"/>
      <point x="-21" y="449"/>
      <point x="-37" y="433"/>
      <point x="-37" y="413" type="curve" smooth="yes"/>
      <point x="-37" y="385" type="line" smooth="yes"/>
      <point x="-37" y="366"/>
      <point x="-21" y="350"/>
      <point x="-1" y="350" type="curve" smooth="yes"/>
      <point x="16" y="350" type="line"/>
      <point x="16" y="288" type="line"/>
      <point x="-1" y="288" type="line" smooth="yes"/>
      <point x="-21" y="288"/>
      <point x="-37" y="272"/>
      <point x="-37" y="252" type="curve" smooth="yes"/>
      <point x="-37" y="224" type="line" smooth="yes"/>
      <point x="-37" y="205"/>
      <point x="-21" y="189"/>
      <point x="-1" y="189" type="curve" smooth="yes"/>
      <point x="16" y="189" type="line"/>
      <point x="19" y="33"/>
      <point x="117" y="0"/>
      <point x="190" y="0" type="curve" smooth="yes"/>
      <point x="287" y="0"/>
      <point x="330" y="70"/>
      <point x="330" y="70" type="curve"/>
      <point x="339" y="85"/>
      <point x="336" y="106"/>
      <point x="322" y="117" type="curve" smooth="yes"/>
      <point x="296" y="136" type="line" smooth="yes"/>
      <point x="278" y="150"/>
      <point x="253" y="145"/>
      <point x="243" y="124" type="curve"/>
      <point x="243" y="124"/>
      <point x="229" y="99"/>
      <point x="190" y="99" type="curve" smooth="yes"/>
      <point x="140" y="99"/>
      <point x="118" y="139"/>
      <point x="117" y="189" type="curve"/>
      <point x="226" y="189" type="line" smooth="yes"/>
      <point x="245" y="189"/>
      <point x="261" y="205"/>
      <point x="261" y="224" type="curve" smooth="yes"/>
    </contour>
  </outline>
</glyph>
<glyph name="trademark" format="1">
  <advance width="650"/>
  <unicode hex="2122"/>
  <outline>
    <contour>
      <point x="7" y="621" type="line" smooth="yes"/>
      <point x="7" y="601"/>
      <point x="23" y="585"/>
      <point x="43" y="585" type="curve" smooth="yes"/>
      <point x="94" y="585" type="line"/>
      <point x="94" y="429" type="line" smooth="yes"/>
      <point x="94" y="409"/>
      <point x="110" y="393"/>
      <point x="130" y="393" type="curve" smooth="yes"/>
      <point x="147" y="393" type="line" smooth="yes"/>
      <point x="167" y="393"/>
      <point x="183" y="409"/>
      <point x="183" y="429" type="curve" smooth="yes"/>
      <point x="183" y="585" type="line"/>
      <point x="235" y="585" type="line" smooth="yes"/>
      <point x="255" y="585"/>
      <point x="271" y="601"/>
      <point x="271" y="621" type="curve" smooth="yes"/>
      <point x="271" y="639" type="line" smooth="yes"/>
      <point x="271" y="659"/>
      <point x="255" y="675"/>
      <point x="235" y="675" type="curve" smooth="yes"/>
      <point x="43" y="675" type="line" smooth="yes"/>
      <point x="23" y="675"/>
      <point x="7" y="659"/>
      <point x="7" y="639" type="curve" smooth="yes"/>
    </contour>
    <contour>
      <point x="424" y="420" type="line"/>
      <point x="431" y="383"/>
      <point x="484" y="380"/>
      <point x="495" y="421" type="curve"/>
      <point x="528" y="523" type="line"/>
      <point x="528" y="428" type="line" smooth="yes"/>
      <point x="528" y="408"/>
      <point x="544" y="392"/>
      <point x="564" y="392" type="curve" smooth="yes"/>
      <point x="572" y="392" type="line" smooth="yes"/>
      <point x="592" y="392"/>
      <point x="608" y="408"/>
      <point x="608" y="428" type="curve" smooth="yes"/>
      <point x="608" y="638" type="line" smooth="yes"/>
      <point x="608" y="658"/>
      <point x="592" y="674"/>
      <point x="572" y="674" type="curve" smooth="yes"/>
      <point x="562" y="674" type="line" smooth="yes"/>
      <point x="547" y="674"/>
      <point x="530" y="661"/>
      <point x="527" y="646" type="curve"/>
      <point x="459" y="505" type="line"/>
      <point x="390" y="646" type="line"/>
      <point x="387" y="661"/>
      <point x="371" y="674"/>
      <point x="356" y="674" type="curve" smooth="yes"/>
      <point x="346" y="674" type="line" smooth="yes"/>
      <point x="326" y="674"/>
      <point x="310" y="658"/>
      <point x="310" y="638" type="curve" smooth="yes"/>
      <point x="310" y="428" type="line" smooth="yes"/>
      <point x="310" y="408"/>
      <point x="326" y="392"/>
      <point x="346" y="392" type="curve" smooth="yes"/>
      <point x="354" y="392" type="line" smooth="yes"/>
      <point x="373" y="392"/>
      <point x="390" y="408"/>
      <point x="390" y="428" type="curve" smooth="yes"/>
      <point x="390" y="525" type="line"/>
    </contour>
  </outline>
</glyph>
<glyph name="Acute" format="1">
  <advance width="247"/>
  <unicode hex="F6C9"/>
  <outline>
    <contour>
      <point x="98" y="717"/>
      <point x="208" y="798"/>
      <point x="208" y="798" type="curve"/>
      <point x="237" y="818"/>
      <point x="223" y="863"/>
      <point x="187" y="863" type="curve" smooth="yes"/>
      <point x="117" y="863"/>
      <point x="17" y="782"/>
      <point x="17" y="782" type="curve"/>
      <point x="-12" y="762"/>
      <point x="1" y="717"/>
      <point x="37" y="717" type="curve" smooth="yes"/>
    </contour>
  </outline>
</glyph>
